<?xml version="1.0" encoding="UTF-8"?> <svg xmlns="http://www.w3.org/2000/svg" width="180" height="160" viewBox="0 0 180 160" fill="none"><g clip-path="url(#clip0)"><path fill-rule="evenodd" clip-rule="evenodd" d="M89.97 16.1797C125.249 16.1797 153.82 44.7506 153.82 80.0299C153.82 115.309 125.249 143.88 89.97 143.88C54.6907 143.88 26.1797 115.249 26.1797 79.97C26.1797 44.7506 54.7506 16.1797 89.97 16.1797Z" fill="#1D1D1B" stroke="#1D1D1B" stroke-width="0.5669" stroke-miterlimit="22.9256"></path><path d="M45.6459 85.4806H45.9453C46.3646 85.4806 46.7839 85.7201 47.0834 86.2592C48.2813 85.7201 49.4793 85.4806 50.7371 85.4806H51.5757C54.3309 85.4806 56.4273 86.4988 57.805 88.5952C58.2242 89.3739 58.4039 90.0926 58.4039 90.6916V91.3505C58.4039 93.0276 57.6852 94.2854 56.1877 95.2438V95.3037C57.6253 96.3818 58.4039 97.6995 58.4039 99.2569V99.7959C58.4039 102.192 56.8466 103.929 53.6721 104.887C52.7137 105.067 51.8153 105.187 51.0366 105.187C49.659 105.187 48.3412 104.887 46.9636 104.348C46.724 104.887 46.3646 105.127 45.8854 105.127H45.586C44.7474 104.947 44.3281 104.528 44.3281 103.869V86.7384C44.5677 85.8998 44.987 85.4806 45.6459 85.4806ZM47.2032 89.5536V101.054C48.1016 101.892 49.2996 102.252 50.797 102.252H51.6356C53.3127 102.252 54.5705 101.713 55.3492 100.575C55.5289 100.275 55.5888 99.9756 55.5888 99.6163V99.4965C55.5888 98.1787 54.6304 97.3402 52.7137 97.0407C51.0366 96.7412 50.1381 96.3818 50.1381 96.0224C50.0782 96.0224 49.9584 95.7828 49.8986 95.3037C49.8986 94.3453 50.7371 93.8062 52.4142 93.6864C54.5106 93.3271 55.5888 92.4885 55.5888 91.2307V90.9911C55.5888 89.4937 54.3309 88.6551 51.8153 88.2957H50.9168C49.4194 88.2957 48.1615 88.715 47.2032 89.5536ZM67.2088 85.4806C68.5864 85.4806 70.563 89.4338 73.0787 97.3402C73.7376 99.9157 74.0371 101.892 74.0371 103.27V103.39L74.097 103.749C74.097 104.588 73.5579 105.067 72.5396 105.187C71.8209 105.187 71.3417 104.707 71.2219 103.689C71.2219 101.952 70.3234 100.694 68.5265 99.8558C67.9875 99.6761 67.4484 99.5564 66.9692 99.5564C65.352 99.5564 64.0942 100.395 63.1957 102.072C63.016 102.491 62.8363 103.27 62.7165 104.468C62.3571 105.007 61.878 105.247 61.3988 105.247C60.4404 105.067 60.0212 104.648 60.0212 103.989V103.21C60.0212 99.9157 61.3988 95.124 64.2139 88.715C65.1723 86.9181 65.8312 85.8998 66.2504 85.7201C66.4301 85.5404 66.7296 85.4806 67.2088 85.4806ZM66.9692 89.6134C65.8312 92.0093 64.8728 94.4052 64.0942 96.8011L63.9744 97.4001H64.0343C64.9327 96.9808 65.951 96.7412 67.089 96.7412C68.0474 96.7412 69.0057 96.9808 70.0839 97.4001V97.3402C69.3052 94.7646 68.4067 92.3088 67.3286 90.0926C67.2687 90.0926 67.2088 89.9129 67.089 89.6134H66.9692V89.6134ZM82.1831 85.4806C85.8967 85.4806 88.3525 87.2775 89.5504 90.8114L89.7301 92.189V92.8479C89.7301 94.7646 88.8316 96.5016 86.9748 98.1188C88.7717 99.736 89.7301 101.533 89.7301 103.39V103.869C89.7301 104.588 89.2509 105.007 88.3525 105.127H88.2327C87.454 105.127 87.0347 104.648 86.9149 103.629C86.9149 101.773 85.8967 100.455 83.8003 99.6761L82.9617 99.5564H78.5293V103.629C78.4095 104.648 77.9903 105.127 77.2116 105.127H77.1517C76.4329 105.127 76.0137 104.827 75.7741 104.168L75.7142 103.869V86.7384C75.7142 86.0196 76.1934 85.5404 77.2116 85.4207H82.1831V85.4806ZM78.4694 88.3556V96.6813H82.9018C84.3993 96.6813 85.5972 95.8427 86.4957 94.1656C86.7352 93.6864 86.855 93.1474 86.855 92.4885C86.855 90.5718 85.8368 89.2541 83.7404 88.4754L82.9018 88.3556H78.4694ZM92.7848 85.4806C93.6833 85.7201 94.1026 86.1394 94.1026 86.7983V103.929C93.9229 104.767 93.5036 105.187 92.8447 105.187H92.6051C91.8265 105.187 91.4072 104.707 91.2874 103.689V86.8582C91.2874 86.0795 91.7666 85.6602 92.7848 85.4806ZM102.848 85.4806C105.783 85.4806 108.059 86.4389 109.556 88.2957C109.676 88.4754 109.736 88.715 109.796 89.0145C109.796 89.853 109.316 90.3322 108.298 90.452C107.879 90.452 107.28 90.0327 106.561 89.2541C105.423 88.715 104.345 88.4155 103.207 88.4155H102.668C100.751 88.4155 99.3735 89.0145 98.6548 90.2124C98.535 90.5718 98.4751 90.9312 98.4751 91.2307C98.4751 92.4885 99.3735 93.2672 101.23 93.6266C104.944 94.1656 107.28 94.9443 108.298 95.9625C109.316 97.0407 109.796 98.2386 109.796 99.6163C109.796 102.192 108.238 103.989 105.184 104.947C104.285 105.127 103.626 105.247 103.087 105.247H102.069C99.4933 105.247 97.3969 104.348 95.8995 102.491C95.7797 102.312 95.7198 102.072 95.7198 101.892V101.593C95.7198 100.874 96.199 100.455 97.1573 100.335C97.5766 100.335 98.1756 100.694 98.8344 101.473C99.9126 102.072 101.111 102.372 102.488 102.372C104.704 102.372 106.142 101.713 106.801 100.455L106.921 99.6163C106.921 98.2985 105.962 97.46 104.105 97.1605C100.512 96.5016 98.3553 95.9026 97.6365 95.3037C96.3188 94.2854 95.6599 92.9677 95.6599 91.4703V90.8114C95.6599 88.8348 96.9776 87.2176 99.5532 86.0795C100.811 85.6602 101.949 85.4806 102.848 85.4806ZM117.702 85.4806H118.84C121.416 85.4806 123.452 86.0795 124.89 87.2775C125.069 87.517 125.189 87.7566 125.189 87.9962V88.4155C125.189 88.9546 124.71 89.3739 123.812 89.6134C123.572 89.6134 122.973 89.3739 122.074 88.8348C120.996 88.5353 120.218 88.3556 119.679 88.3556V103.869C119.499 104.767 119.08 105.187 118.421 105.187H118.121C117.462 105.187 117.043 104.767 116.863 103.869V88.3556C115.905 88.3556 114.827 88.715 113.629 89.3739C113.509 89.5535 113.21 89.6733 112.731 89.7332C112.072 89.7332 111.593 89.314 111.353 88.5353V88.0561C111.353 87.0978 112.91 86.2592 115.965 85.5404L117.702 85.4806ZM130.101 85.4806C131.478 85.4806 133.455 89.4338 135.971 97.3402C136.629 99.9157 136.929 101.892 136.929 103.27V103.39L136.989 103.749C136.989 104.588 136.45 105.067 135.432 105.187C134.713 105.187 134.234 104.707 134.114 103.689C134.114 101.952 133.215 100.694 131.418 99.8558C130.879 99.6761 130.34 99.5564 129.861 99.5564C128.244 99.5564 126.986 100.395 126.088 102.072C125.908 102.491 125.728 103.27 125.608 104.468C125.249 105.007 124.77 105.247 124.291 105.247C123.332 105.067 122.913 104.648 122.913 103.989V103.21C122.913 99.9157 124.291 95.124 127.106 88.715C128.064 86.9181 128.723 85.8998 129.082 85.7201C129.322 85.5404 129.681 85.4806 130.101 85.4806ZM129.861 89.6134C128.723 92.0093 127.765 94.4052 126.986 96.8011L126.866 97.4001H126.926C127.825 96.9808 128.843 96.7412 129.981 96.7412C130.939 96.7412 131.898 96.9808 132.976 97.4001V97.3402C132.197 94.7646 131.299 92.3088 130.22 90.0926C130.161 90.0926 130.101 89.9129 129.981 89.6134H129.861V89.6134Z" fill="#F9BE5B"></path><path d="M48.8809 49.2429C50.0788 49.2429 50.7976 50.0216 51.0372 51.6388V69.0688C51.0372 71.9439 52.4747 73.9804 55.4097 75.2382C56.0087 75.4778 56.7274 75.5976 57.566 75.5976C59.3629 75.5976 61.0999 74.819 62.777 73.2017L63.6156 73.0221H63.9151C65.2927 73.3215 66.0115 74.0403 66.0115 75.1184V75.4179C66.0115 76.9154 64.0948 78.3529 60.3212 79.7904C59.4228 79.9701 58.6441 80.0899 57.9254 80.0899H57.1467C53.1935 80.0899 50.0788 78.0534 47.683 74.0403C46.9043 72.5429 46.5449 71.0455 46.5449 69.4881V51.2794C46.6048 50.2013 47.3236 49.5424 48.8809 49.2429ZM77.8112 57.928C82.4832 57.928 85.9572 60.3239 88.2333 65.2354C88.5927 66.6131 88.7723 67.7511 88.7723 68.6496V77.9336C88.7723 79.0717 87.9937 79.7904 86.4963 80.03C85.0587 79.7305 84.34 79.0118 84.34 77.8737C82.3035 79.3112 80.1472 80.03 77.8112 80.03C73.4986 80.03 70.1444 77.8737 67.7485 73.5611C67.0896 72.1236 66.7901 70.746 66.7901 69.3683V68.5298C66.7901 64.6964 68.7667 61.5218 72.7798 59.1858C74.4569 58.3473 76.1341 57.928 77.8112 57.928ZM71.2824 68.8892V69.0089C71.2824 72.0637 72.9595 74.22 76.3138 75.358L77.332 75.4179H78.3503C80.6263 75.4179 82.4832 74.0403 83.9207 71.285C84.1603 70.3866 84.2801 69.6079 84.2801 68.8293C84.2801 66.0141 82.7227 63.9776 79.6081 62.6599L78.2904 62.4802H77.2721C75.0559 62.4802 73.259 63.6781 71.8814 66.074C71.522 66.9724 71.2824 67.8709 71.2824 68.8892ZM93.2047 49.2429H93.7438C95.0615 49.4825 95.7204 50.3211 95.7204 51.6987V60.6234L96.0199 60.5036C97.3376 60.5036 98.0564 61.2822 98.296 62.8995C98.296 63.4385 97.7569 64.337 96.6788 65.5349C96.0199 66.673 95.7204 67.6912 95.7204 68.6496V69.3084C95.7204 71.7043 96.9782 73.5611 99.4939 74.8789C99.9731 75.1783 101.171 75.4179 103.088 75.6575C103.986 76.1966 104.405 76.8555 104.405 77.5742V77.9336C104.405 79.1316 103.627 79.7904 102.129 80.03C97.9366 80.03 94.6423 77.9336 92.1865 73.6809C91.5276 72.1236 91.1682 70.3267 91.1682 68.1704V51.6987C91.1682 50.3211 91.8271 49.4825 93.2047 49.2429ZM105.963 49.2429H106.502C107.82 49.4825 108.478 50.3211 108.478 51.6987V60.6234L108.778 60.5036C110.096 60.5036 110.814 61.2822 111.054 62.8995C111.054 63.4385 110.515 64.337 109.437 65.5349C108.778 66.673 108.478 67.6912 108.478 68.6496V69.3084C108.478 71.7043 109.736 73.5611 112.252 74.8789C112.731 75.1783 113.929 75.4179 115.846 75.6575C116.744 76.1966 117.164 76.8555 117.164 77.5742V77.9336C117.164 79.1316 116.385 79.7904 114.887 80.03C110.695 80.03 107.4 77.9336 104.945 73.6809C104.286 72.1236 103.926 70.3267 103.926 68.1704V51.6987C103.986 50.3211 104.645 49.4825 105.963 49.2429ZM127.106 57.928C130.341 57.928 133.036 59.1858 135.252 61.7015C135.432 62.0609 135.552 62.4203 135.552 62.8396C135.552 63.6182 134.354 65.0557 131.958 67.212L124.411 74.8789V74.9987C125.369 75.2981 126.088 75.4778 126.687 75.4778H127.526C129.023 75.4778 130.64 74.6992 132.258 73.2017L133.276 72.9023C134.773 73.2017 135.552 73.9205 135.552 75.1783C135.552 76.7357 133.695 78.2331 129.982 79.6107C128.843 79.8503 127.885 79.9701 127.047 79.9701C122.674 79.9701 119.26 77.7539 116.924 73.2616C116.385 71.7043 116.085 70.2069 116.085 68.8892C116.085 64.5167 118.302 61.1025 122.794 58.7666C124.351 58.2275 125.789 57.928 127.106 57.928ZM120.578 68.5298V68.8293L120.458 68.9491L120.578 69.0688V69.4282C120.578 70.0272 120.757 70.746 121.057 71.7043H121.117L129.742 63.0791V63.0192C128.784 62.7198 128.065 62.5401 127.466 62.5401H126.627C124.112 62.5401 122.195 63.9776 120.877 66.9126C120.697 67.5115 120.578 68.0506 120.578 68.5298Z" fill="white"></path></g><defs><clipPath id="clip0"><rect x="26" y="16" width="128" height="128" fill="white"></rect></clipPath></defs></svg> 