<?xml version="1.0" encoding="UTF-8"?> <svg xmlns="http://www.w3.org/2000/svg" width="180" height="160" viewBox="0 0 180 160" fill="none"><path fill-rule="evenodd" clip-rule="evenodd" d="M48.6278 142.83C48.6278 142.978 48.6278 143.053 48.5534 143.127C48.4791 143.201 48.4047 143.276 48.1816 143.35C48.0329 143.424 47.8099 143.424 47.5124 143.499C47.215 143.499 46.8432 143.573 46.4714 143.573C46.0253 143.573 45.6535 143.573 45.4304 143.499C45.133 143.499 44.9099 143.424 44.7612 143.35C44.6124 143.276 44.4637 143.201 44.3894 143.127C44.315 143.053 44.315 142.904 44.315 142.83V133.832C44.315 133.312 44.2407 132.866 44.1663 132.419C44.0919 131.973 43.9432 131.676 43.7201 131.304C43.4971 131.007 43.274 130.783 42.9766 130.635C42.6791 130.486 42.3073 130.412 41.8612 130.412C41.3407 130.412 40.8202 130.635 40.2997 131.007C39.7792 131.378 39.1843 131.973 38.5894 132.717V142.83C38.5894 142.978 38.5894 143.053 38.5151 143.127C38.4407 143.201 38.292 143.276 38.1433 143.35C37.9946 143.424 37.7715 143.424 37.4741 143.499C37.1766 143.499 36.8792 143.573 36.433 143.573C35.9869 143.573 35.6895 143.573 35.392 143.499C35.0946 143.499 34.8715 143.424 34.7228 143.35C34.5741 143.276 34.4254 143.201 34.351 143.127C34.2766 143.053 34.2766 142.904 34.2766 142.83V133.832C34.2766 133.312 34.2023 132.866 34.1279 132.419C34.0536 131.973 33.9049 131.676 33.6818 131.304C33.4587 131.007 33.2356 130.783 32.9382 130.635C32.6408 130.486 32.269 130.412 31.8228 130.412C31.3023 130.412 30.7818 130.635 30.2613 131.007C29.7408 131.378 29.1459 131.973 28.5511 132.717V142.83C28.5511 142.978 28.5511 143.053 28.4767 143.127C28.4023 143.201 28.2536 143.276 28.1049 143.35C27.9562 143.424 27.7331 143.424 27.4357 143.499C27.1383 143.499 26.8408 143.573 26.3947 143.573C25.9485 143.573 25.6511 143.573 25.3537 143.499C25.0562 143.499 24.8331 143.424 24.6844 143.35C24.5357 143.276 24.387 143.201 24.3126 143.127C24.2383 143.053 24.2383 142.904 24.2383 142.83V127.66C24.2383 127.586 24.2383 127.437 24.3126 127.363C24.387 127.289 24.4614 127.214 24.6101 127.14C24.7588 127.066 24.9819 127.066 25.2049 126.991C25.428 126.991 25.7254 126.917 26.0972 126.917C26.469 126.917 26.7665 126.917 26.9895 126.991C27.2126 126.991 27.4357 127.066 27.5844 127.14C27.7331 127.214 27.8075 127.289 27.8818 127.363C27.9562 127.437 27.9562 127.586 27.9562 127.66V129.445C28.8485 128.553 29.6664 127.884 30.4844 127.363C31.3023 126.917 32.1946 126.694 33.1613 126.694C33.8305 126.694 34.351 126.768 34.8715 126.917C35.392 127.066 35.8382 127.214 36.21 127.512C36.5818 127.735 36.9535 128.032 37.251 128.404C37.5484 128.776 37.7715 129.148 37.9946 129.519C38.4407 128.999 38.8869 128.627 39.333 128.255C39.7792 127.884 40.2253 127.586 40.6715 127.363C41.1176 127.14 41.5638 126.991 41.9356 126.842C42.3817 126.768 42.8279 126.694 43.274 126.694C44.315 126.694 45.133 126.842 45.8765 127.214C46.5458 127.586 47.1406 128.032 47.5868 128.627C48.0329 129.222 48.3304 129.891 48.4791 130.709C48.6278 131.527 48.7765 132.345 48.7765 133.163V142.83H48.6278ZM57.2534 142.83C57.2534 142.978 57.2534 143.053 57.179 143.127C57.1046 143.201 56.9559 143.276 56.8072 143.35C56.6585 143.424 56.4354 143.424 56.138 143.499C55.8405 143.499 55.5431 143.573 55.097 143.573C54.6508 143.573 54.3534 143.573 54.0559 143.499C53.7585 143.499 53.5354 143.424 53.3867 143.35C53.238 143.276 53.0893 143.201 53.0149 143.127C52.9406 143.053 52.9406 142.904 52.9406 142.83V127.66C52.9406 127.512 52.9406 127.437 53.0149 127.363C53.0893 127.289 53.1636 127.214 53.3867 127.14C53.5354 127.066 53.7585 127.066 54.0559 126.991C54.3534 126.991 54.6508 126.917 55.097 126.917C55.5431 126.917 55.8405 126.917 56.138 126.991C56.4354 126.991 56.6585 127.066 56.8072 127.14C56.9559 127.214 57.1046 127.289 57.179 127.363C57.2534 127.437 57.2534 127.512 57.2534 127.66V142.83ZM57.6251 122.455C57.6251 123.348 57.4764 123.943 57.1046 124.24C56.7328 124.537 56.0636 124.76 55.097 124.76C54.1303 124.76 53.4611 124.612 53.0893 124.314C52.7175 124.017 52.5688 123.422 52.5688 122.604C52.5688 121.712 52.7175 121.117 53.0893 120.819C53.4611 120.448 54.1303 120.299 55.097 120.299C56.0636 120.299 56.7328 120.448 57.1046 120.819C57.4021 121.043 57.6251 121.637 57.6251 122.455ZM65.9533 142.83C65.9533 142.978 65.9533 143.053 65.8789 143.127C65.8046 143.201 65.6558 143.276 65.5071 143.35C65.3584 143.424 65.1353 143.424 64.8379 143.499C64.5405 143.499 64.243 143.573 63.7969 143.573C63.3507 143.573 63.0533 143.573 62.7559 143.499C62.4584 143.499 62.2354 143.424 62.0866 143.35C61.9379 143.276 61.7892 143.201 61.7149 143.127C61.6405 143.053 61.6405 142.904 61.6405 142.83V120.448C61.6405 120.299 61.6405 120.225 61.7149 120.15C61.7892 120.076 61.8636 120.002 62.0866 119.927C62.2354 119.853 62.4584 119.853 62.7559 119.778C63.0533 119.778 63.3507 119.704 63.7969 119.704C64.243 119.704 64.5405 119.704 64.8379 119.778C65.1353 119.778 65.3584 119.853 65.5071 119.927C65.6558 120.002 65.8046 120.076 65.8789 120.15C65.9533 120.225 65.9533 120.373 65.9533 120.448V142.83ZM84.6916 142.83C84.6916 142.978 84.6916 143.053 84.6172 143.127C84.5428 143.201 84.4685 143.276 84.2454 143.35C84.0967 143.424 83.8736 143.424 83.5762 143.499C83.2788 143.499 82.907 143.573 82.4608 143.573C82.0147 143.573 81.5685 143.573 81.2711 143.573C80.9736 143.573 80.7506 143.499 80.5275 143.499C80.3044 143.424 80.1557 143.35 80.0813 143.276C80.007 143.201 79.8583 143.053 79.7839 142.904L74.6532 134.873V142.904C74.6532 143.053 74.6532 143.127 74.5788 143.201C74.5045 143.276 74.3558 143.35 74.207 143.424C74.0583 143.499 73.8352 143.499 73.5378 143.573C73.2404 143.573 72.943 143.647 72.4968 143.647C72.0507 143.647 71.7532 143.647 71.4558 143.573C71.1584 143.573 70.9353 143.499 70.7866 143.424C70.6378 143.35 70.4891 143.276 70.4148 143.201C70.3404 143.127 70.3404 142.978 70.3404 142.904V120.522C70.3404 120.373 70.3404 120.299 70.4148 120.225C70.4891 120.15 70.5635 120.076 70.7866 120.002C70.9353 119.927 71.1584 119.927 71.4558 119.853C71.7532 119.853 72.0507 119.778 72.4968 119.778C72.943 119.778 73.2404 119.778 73.5378 119.853C73.8352 119.853 74.0583 119.927 74.207 120.002C74.3558 120.076 74.5045 120.15 74.5788 120.225C74.6532 120.299 74.6532 120.448 74.6532 120.522V133.832L79.2634 127.809C79.3378 127.66 79.4865 127.586 79.5608 127.437C79.7096 127.363 79.8583 127.289 80.007 127.214C80.2301 127.14 80.4531 127.14 80.7506 127.066C81.048 127.066 81.4198 126.991 81.8659 126.991C82.3121 126.991 82.6839 126.991 82.9813 127.066C83.2788 127.066 83.5018 127.14 83.7249 127.214C83.8736 127.289 84.0223 127.363 84.0967 127.437C84.1711 127.512 84.1711 127.66 84.1711 127.735C84.1711 127.884 84.0967 128.107 84.0223 128.255C83.948 128.478 83.7993 128.627 83.6505 128.85L79.1147 133.907L84.3198 141.863C84.4685 142.086 84.5428 142.309 84.6172 142.458C84.6916 142.532 84.6916 142.681 84.6916 142.83ZM100.084 142.83C100.084 142.978 100.009 143.127 99.935 143.201C99.7863 143.276 99.6376 143.35 99.4145 143.424C99.1914 143.499 98.8196 143.499 98.2991 143.499C97.7786 143.499 97.4068 143.499 97.1838 143.424C96.9607 143.35 96.812 143.35 96.6632 143.201C96.5889 143.127 96.5145 142.978 96.5145 142.83V141.64C95.8453 142.309 95.1761 142.83 94.3581 143.201C93.5402 143.573 92.6479 143.796 91.6812 143.796C90.8633 143.796 90.1197 143.722 89.4505 143.499C88.7813 143.276 88.1864 142.978 87.6659 142.532C87.1454 142.086 86.7736 141.565 86.4762 140.971C86.1787 140.376 86.03 139.632 86.03 138.814C86.03 137.922 86.1787 137.178 86.5505 136.509C86.9223 135.84 87.4428 135.319 88.112 134.873C88.7813 134.427 89.6736 134.13 90.7146 133.907C91.7556 133.683 92.9453 133.609 94.3581 133.609H95.8453V132.717C95.8453 132.271 95.7709 131.824 95.6966 131.453C95.6222 131.081 95.4735 130.783 95.1761 130.56C94.953 130.337 94.6556 130.114 94.2838 130.04C93.912 129.891 93.4658 129.891 92.871 129.891C92.1274 129.891 91.4582 129.966 90.9377 130.114C90.3428 130.263 89.8966 130.412 89.4505 130.635C89.0043 130.858 88.6325 131.007 88.3351 131.155C88.0377 131.304 87.8146 131.378 87.5915 131.378C87.4428 131.378 87.3685 131.378 87.2197 131.23C87.1454 131.155 87.071 131.007 86.9967 130.858C86.9223 130.709 86.8479 130.56 86.8479 130.337C86.8479 130.114 86.7736 129.891 86.7736 129.594C86.7736 129.222 86.7736 128.999 86.8479 128.776C86.9223 128.553 86.9967 128.404 87.1454 128.255C87.2941 128.107 87.5915 127.884 87.9633 127.735C88.3351 127.512 88.8556 127.363 89.3761 127.214C89.8966 127.066 90.4915 126.917 91.1607 126.768C91.83 126.694 92.4248 126.619 93.1684 126.619C94.3581 126.619 95.3992 126.768 96.2915 126.991C97.1838 127.214 97.853 127.586 98.4478 128.032C98.9683 128.478 99.4145 129.148 99.6376 129.891C99.8607 130.635 100.009 131.527 100.009 132.568L100.084 142.83ZM95.8453 136.36H94.2094C93.5402 136.36 92.871 136.435 92.4248 136.509C91.9043 136.583 91.5325 136.732 91.2351 136.955C90.9377 137.178 90.7146 137.401 90.5659 137.699C90.4171 137.996 90.3428 138.294 90.3428 138.665C90.3428 139.335 90.5659 139.781 90.9377 140.153C91.3094 140.524 91.9043 140.673 92.6479 140.673C93.2428 140.673 93.8376 140.524 94.3581 140.227C94.8786 139.93 95.3992 139.483 95.9197 138.889V136.36H95.8453ZM118.153 127.586C118.153 127.66 118.153 127.735 118.153 127.809C118.153 127.884 118.153 127.958 118.153 128.107C118.153 128.181 118.078 128.33 118.078 128.404C118.078 128.553 118.004 128.701 117.93 128.85L113.319 142.606C113.245 142.83 113.171 142.978 113.096 143.053C113.022 143.201 112.873 143.276 112.576 143.35C112.353 143.424 112.055 143.499 111.684 143.499C111.312 143.499 110.791 143.499 110.196 143.499C109.602 143.499 109.081 143.499 108.709 143.424C108.337 143.424 108.04 143.35 107.817 143.276C107.594 143.201 107.445 143.127 107.371 142.978C107.296 142.83 107.222 142.681 107.148 142.532L102.538 128.776C102.463 128.553 102.389 128.33 102.389 128.181C102.314 127.958 102.314 127.884 102.314 127.809C102.314 127.735 102.314 127.66 102.314 127.586C102.314 127.512 102.314 127.363 102.389 127.289C102.463 127.214 102.538 127.14 102.761 127.066C102.909 126.991 103.132 126.991 103.43 126.917C103.727 126.917 104.099 126.917 104.471 126.917C104.917 126.917 105.289 126.917 105.586 126.991C105.884 126.991 106.107 127.066 106.255 127.14C106.404 127.214 106.553 127.289 106.627 127.363C106.702 127.437 106.776 127.586 106.776 127.735L110.271 138.889L110.345 139.335L110.42 138.889L113.914 127.735C113.914 127.586 113.989 127.512 114.063 127.363C114.137 127.289 114.286 127.214 114.435 127.14C114.584 127.066 114.807 127.066 115.104 126.991C115.402 126.991 115.699 126.917 116.145 126.917C116.591 126.917 116.889 126.917 117.186 126.917C117.484 126.917 117.707 126.991 117.855 127.066C118.004 127.14 118.078 127.214 118.153 127.289C118.153 127.363 118.153 127.437 118.153 127.586ZM125.068 142.83C125.068 142.978 125.068 143.053 124.994 143.127C124.919 143.201 124.771 143.276 124.622 143.35C124.473 143.424 124.25 143.424 123.953 143.499C123.655 143.499 123.358 143.573 122.912 143.573C122.466 143.573 122.168 143.573 121.871 143.499C121.573 143.499 121.35 143.424 121.201 143.35C121.053 143.276 120.904 143.201 120.83 143.127C120.755 143.053 120.755 142.904 120.755 142.83V127.66C120.755 127.512 120.755 127.437 120.83 127.363C120.904 127.289 120.978 127.214 121.201 127.14C121.35 127.066 121.573 127.066 121.871 126.991C122.168 126.991 122.466 126.917 122.912 126.917C123.358 126.917 123.655 126.917 123.953 126.991C124.25 126.991 124.473 127.066 124.622 127.14C124.771 127.214 124.919 127.289 124.994 127.363C125.068 127.437 125.068 127.512 125.068 127.66V142.83ZM125.44 122.455C125.44 123.348 125.291 123.943 124.919 124.24C124.548 124.537 123.878 124.76 122.912 124.76C121.945 124.76 121.276 124.612 120.904 124.314C120.532 124.017 120.384 123.422 120.384 122.604C120.384 121.712 120.532 121.117 120.904 120.819C121.276 120.448 121.945 120.299 122.912 120.299C123.878 120.299 124.548 120.448 124.919 120.819C125.291 121.043 125.44 121.637 125.44 122.455ZM138.601 141.268C138.601 141.789 138.601 142.16 138.527 142.383C138.453 142.681 138.378 142.83 138.304 142.978C138.23 143.053 138.081 143.201 137.858 143.276C137.635 143.35 137.412 143.424 137.114 143.499C136.817 143.573 136.519 143.573 136.222 143.647C135.924 143.647 135.553 143.722 135.255 143.722C134.363 143.722 133.619 143.647 133.024 143.424C132.355 143.201 131.835 142.904 131.463 142.458C131.017 142.012 130.719 141.417 130.571 140.747C130.348 140.078 130.273 139.26 130.273 138.294V130.486H128.414C128.191 130.486 128.042 130.337 127.894 130.114C127.745 129.817 127.745 129.371 127.745 128.776C127.745 128.478 127.745 128.181 127.819 127.958C127.819 127.735 127.894 127.586 127.968 127.437C128.042 127.289 128.117 127.214 128.191 127.14C128.266 127.066 128.414 127.066 128.489 127.066H130.348V123.645C130.348 123.571 130.348 123.422 130.422 123.348C130.496 123.273 130.571 123.199 130.794 123.125C130.942 123.05 131.165 123.05 131.463 122.976C131.76 122.976 132.132 122.901 132.504 122.901C132.95 122.901 133.322 122.902 133.545 122.976C133.842 122.976 134.065 123.05 134.214 123.125C134.363 123.199 134.512 123.273 134.586 123.348C134.66 123.422 134.66 123.571 134.66 123.645V127.066H138.006C138.155 127.066 138.23 127.066 138.304 127.14C138.378 127.214 138.453 127.289 138.527 127.437C138.601 127.586 138.601 127.735 138.676 127.958C138.676 128.181 138.75 128.478 138.75 128.776C138.75 129.371 138.676 129.817 138.601 130.114C138.453 130.412 138.304 130.486 138.081 130.486H134.735V137.624C134.735 138.442 134.883 139.037 135.106 139.483C135.404 139.93 135.85 140.078 136.519 140.078C136.742 140.078 136.965 140.078 137.114 140.004C137.263 139.93 137.486 139.93 137.635 139.855C137.783 139.781 137.932 139.781 138.006 139.706C138.081 139.632 138.155 139.632 138.304 139.632C138.378 139.632 138.453 139.632 138.527 139.706C138.601 139.781 138.676 139.855 138.676 139.93C138.676 140.078 138.75 140.227 138.75 140.45C138.601 140.747 138.601 140.971 138.601 141.268ZM154.588 142.83C154.588 142.978 154.514 143.127 154.44 143.201C154.291 143.276 154.142 143.35 153.919 143.424C153.696 143.499 153.324 143.499 152.804 143.499C152.283 143.499 151.911 143.499 151.688 143.424C151.465 143.35 151.317 143.35 151.168 143.201C151.094 143.127 151.019 142.978 151.019 142.83V141.64C150.35 142.309 149.681 142.83 148.863 143.201C148.045 143.573 147.153 143.796 146.186 143.796C145.368 143.796 144.624 143.722 143.955 143.499C143.286 143.276 142.691 142.978 142.171 142.532C141.65 142.086 141.278 141.565 140.981 140.971C140.683 140.376 140.535 139.632 140.535 138.814C140.535 137.922 140.683 137.178 141.055 136.509C141.427 135.84 141.947 135.319 142.617 134.873C143.286 134.427 144.178 134.13 145.219 133.907C146.26 133.683 147.45 133.609 148.863 133.609H150.35V132.717C150.35 132.271 150.276 131.824 150.201 131.453C150.127 131.081 149.978 130.783 149.681 130.56C149.458 130.337 149.16 130.114 148.788 130.04C148.417 129.891 147.97 129.891 147.376 129.891C146.632 129.891 145.963 129.966 145.442 130.114C144.847 130.263 144.401 130.412 143.955 130.635C143.509 130.858 143.137 131.007 142.84 131.155C142.542 131.304 142.319 131.378 142.096 131.378C141.947 131.378 141.873 131.378 141.724 131.23C141.65 131.155 141.576 131.007 141.501 130.858C141.427 130.709 141.353 130.56 141.353 130.337C141.353 130.114 141.278 129.891 141.278 129.594C141.278 129.222 141.278 128.999 141.353 128.776C141.427 128.553 141.501 128.404 141.65 128.255C141.799 128.107 142.096 127.884 142.468 127.735C142.84 127.512 143.36 127.363 143.881 127.214C144.401 127.066 144.996 126.917 145.665 126.768C146.335 126.694 146.929 126.619 147.673 126.619C148.863 126.619 149.904 126.768 150.796 126.991C151.688 127.214 152.358 127.586 152.952 128.032C153.473 128.478 153.919 129.148 154.142 129.891C154.365 130.635 154.514 131.527 154.514 132.568L154.588 142.83ZM150.276 136.36H148.64C147.97 136.36 147.301 136.435 146.855 136.509C146.335 136.583 145.963 136.732 145.665 136.955C145.368 137.178 145.145 137.401 144.996 137.699C144.847 137.996 144.773 138.294 144.773 138.665C144.773 139.335 144.996 139.781 145.368 140.153C145.74 140.524 146.335 140.673 147.078 140.673C147.673 140.673 148.268 140.524 148.788 140.227C149.309 139.93 149.829 139.483 150.35 138.889L150.276 136.36Z" fill="#7ACCF4"></path><path d="M96.4416 89.2173C117.411 85.0532 138.9 80.7404 147.972 56.0535C137.933 62.1508 125.59 63.9354 113.172 65.72C89.675 69.1405 65.6572 72.561 56.8086 105.502C66.5495 95.1659 81.3468 92.266 96.4416 89.2173Z" fill="#AFCA0B"></path><path d="M57.0312 100.966C71.2337 40.81 134.215 29.2101 152.433 13.3718C146.707 42.1485 130.572 55.0125 112.577 64.7534C89.8976 68.0252 66.9209 71.52 57.0312 100.966Z" fill="#DBE283"></path><path d="M122.392 83.4917C110.793 115.763 80.0082 104.312 53.7598 115.02C56.8085 97.0249 81.7185 93.2326 96.6645 90.2583C105.439 88.5481 114.362 86.7635 122.392 83.4917Z" fill="#009640"></path><path d="M28.4035 113.681C28.4035 114.797 27.3624 115.689 26.024 115.689C24.6855 115.689 23.6445 114.797 23.6445 113.681V105.427C23.6445 101.338 25.8009 98.5864 28.5522 97.3223C29.6676 96.8018 30.9316 96.5044 32.1214 96.5044C33.3855 96.5044 34.5752 96.7275 35.7649 97.1736C36.6572 97.5454 37.4008 98.0659 38.1444 98.6608C38.8136 97.9916 39.6316 97.5454 40.5239 97.1736C41.6392 96.7275 42.9033 96.5044 44.1674 96.5044C45.4315 96.5044 46.6212 96.8018 47.7366 97.3223C50.4879 98.5864 52.6443 101.338 52.6443 105.427V113.681C52.6443 114.797 51.6032 115.689 50.2648 115.689C48.9264 115.689 47.8853 114.797 47.8853 113.681V105.427C47.8853 102.974 46.8443 101.412 45.4315 100.817C44.9854 100.594 44.4649 100.52 44.0187 100.52C43.5726 100.52 43.1264 100.594 42.6803 100.743C41.4905 101.263 40.5982 102.453 40.5982 104.461C40.5982 104.535 40.5239 113.756 40.5239 113.756C40.5239 113.83 40.5239 113.83 40.5239 113.904C40.5239 113.904 40.5239 113.904 40.5239 113.979C40.5239 113.979 40.5239 113.979 40.5239 114.053C40.5239 114.053 40.5239 114.053 40.5239 114.127C40.4495 114.276 40.3008 114.499 40.1521 114.648C40.1521 114.648 40.1521 114.648 40.0777 114.648C40.0777 114.648 40.0777 114.648 40.0034 114.648C40.0034 114.648 40.0034 114.648 39.929 114.648C39.7059 114.797 39.4085 114.945 39.1111 115.094C39.1111 115.094 39.1111 115.094 39.0367 115.094C39.0367 115.094 39.0367 115.094 38.9623 115.094C38.8136 115.094 38.6649 115.168 38.5162 115.168H38.07C37.9213 115.168 37.7726 115.168 37.6239 115.168C37.5495 115.168 37.4752 115.168 37.4752 115.168C37.4752 115.168 37.4752 115.168 37.4008 115.168C37.4008 115.168 37.4008 115.168 37.3265 115.168C37.2521 115.168 37.2521 115.168 37.1777 115.094C37.1777 115.094 37.1777 115.094 37.1034 115.094C36.8803 115.02 36.7316 114.945 36.5829 114.797C36.5829 114.797 36.5829 114.797 36.5085 114.797C36.4342 114.797 36.4342 114.722 36.3598 114.722C36.2854 114.722 36.2854 114.648 36.2111 114.648C36.0624 114.499 35.988 114.35 35.9136 114.202C35.9136 114.202 35.9136 114.202 35.9136 114.127C35.9136 114.127 35.8393 114.053 35.8393 113.979C35.8393 113.979 35.8393 113.979 35.8393 113.904C35.8393 113.83 35.8393 113.83 35.7649 113.756C35.7649 113.681 35.7649 104.386 35.7649 104.312C35.6906 102.304 34.7983 101.115 33.6829 100.594C33.2367 100.445 32.7906 100.371 32.3444 100.371C31.8983 100.371 31.3778 100.52 30.9316 100.668C29.5932 101.338 28.4778 102.825 28.4778 105.279V113.681H28.4035Z" fill="#F6B2B6"></path></svg> 