<?xml version="1.0" encoding="UTF-8"?> <svg xmlns="http://www.w3.org/2000/svg" width="180" height="160" viewBox="0 0 180 160" fill="none"><path d="M100.562 68.1247L100.206 70.9533C100.135 71.7312 99.564 72.2969 98.6368 72.7919C97.8523 73.1455 97.1391 73.3576 96.3546 73.4283C95.1422 73.4991 94.2864 73.004 93.6445 72.014C93.0026 71.024 92.7173 69.6804 92.646 67.9126C92.646 66.569 92.86 64.3061 93.3592 61.1946C93.8584 58.0831 94.3577 55.8203 94.7856 54.4767H94.5716L93.4305 57.0224L92.4321 59.2146C91.6475 60.9118 90.7204 62.8211 89.6506 64.8011C88.1529 67.4883 86.8691 69.6097 85.728 71.0947C84.159 73.0748 82.8039 74.1355 81.6628 74.2062C80.7357 74.2769 80.0938 73.7112 79.6659 72.6505C79.238 71.519 79.024 69.8926 79.024 67.7711C79.024 66.7811 79.0953 65.579 79.238 64.0232C79.3806 62.4675 79.5946 61.1239 79.8085 59.9217L80.0938 58.0831C80.1651 57.7296 80.1651 57.4467 80.2364 57.1638C80.3078 56.881 80.3791 56.4567 80.5217 55.9617H80.3078C79.5946 57.871 78.6674 60.0632 77.5263 62.6089C76.3852 65.0839 75.3154 67.2761 74.3882 68.9733C72.8192 71.8019 71.3928 73.9233 70.1804 75.1962C68.5401 76.8934 66.6857 77.9541 64.5462 78.4491L63.9043 75.3376C65.1167 74.8426 65.9726 74.4183 66.6144 74.0648C67.2563 73.6405 67.8269 73.0748 68.4687 72.3676C70.1804 70.3169 72.1773 66.9225 74.5309 62.3261C76.8131 57.6589 78.4535 53.7695 79.4519 50.5166L84.6582 50.2338C83.945 53.7695 83.3745 56.881 83.0179 59.7096C82.6613 62.4675 82.4473 64.6597 82.5187 66.2861C82.5187 67.559 82.59 68.4076 82.7326 68.9026C82.8753 69.3976 83.0179 69.6804 83.1605 69.6804C83.5171 69.6804 83.945 69.3269 84.4443 68.7611C84.8722 68.2661 85.3714 67.559 85.942 66.6397C87.2971 64.5182 88.7948 61.6896 90.4351 58.1539C92.0755 54.6888 93.2879 51.8602 93.9298 49.8095L99.1361 49.5266L98.7082 51.2238C97.781 54.6888 97.1391 57.376 96.7825 59.356C96.3546 62.2553 96.1407 65.0839 96.1407 67.8418V68.4076C96.1407 69.1147 96.212 69.6097 96.3546 69.9633C96.4973 70.3169 96.8539 70.4583 97.4244 70.4583C97.995 70.4583 98.5655 70.1754 99.1361 69.7512C99.7066 69.1854 100.135 68.6904 100.562 68.1247ZM118.321 57.8003L116.324 67.1347C116.253 67.4883 116.181 67.7711 116.181 67.9126C116.181 68.1247 116.181 68.3368 116.181 68.6904C116.181 69.1854 116.395 69.3976 116.681 69.3269C117.037 69.3269 117.536 69.1147 118.178 68.7611C118.82 68.4076 119.391 68.054 119.676 67.7711L119.177 70.1754C118.606 70.8826 117.893 71.4483 116.966 71.8726C116.253 72.2262 115.611 72.3676 115.04 72.4383C114.327 72.509 113.757 72.2969 113.329 71.8019C112.901 71.3069 112.687 70.8826 112.687 70.3169C112.687 69.9633 112.758 69.4683 112.972 68.7611C113.043 68.4783 113.115 68.1247 113.257 67.8418H112.972C112.687 69.044 111.831 70.1754 110.547 71.2362C109.263 72.2969 107.98 72.7919 106.696 72.8626C105.412 72.9333 104.342 72.5798 103.487 71.7312C102.559 70.8826 102.06 69.6804 102.06 68.054C102.06 65.7204 102.987 63.5282 104.984 61.4068C106.981 59.356 109.192 58.2246 111.688 58.1539C112.259 58.1539 112.758 58.2246 113.257 58.366C113.757 58.5074 114.327 58.7903 115.04 59.1439L115.326 57.9417L118.321 57.8003ZM114.541 61.336C114.113 61.1239 113.685 60.9825 113.186 60.9118C112.687 60.841 112.259 60.7703 111.831 60.841C110.119 60.9118 108.622 61.7603 107.338 63.3161C106.125 64.7304 105.555 66.2154 105.555 67.7711C105.555 69.3269 106.197 70.1047 107.338 70.034C108.693 69.9633 110.048 69.1147 111.403 67.4175C112.758 65.7204 113.828 63.6696 114.541 61.336ZM133.512 56.9517L136.151 56.8103L134.796 61.6189L134.154 63.9525C134.011 64.3061 133.869 65.0132 133.655 66.1447C133.441 67.2054 133.298 67.9126 133.298 68.1954C133.298 68.549 133.583 68.6904 134.083 68.6904C134.439 68.6904 134.796 68.549 135.152 68.2661C135.366 68.1247 135.58 67.9126 135.937 67.559C136.365 67.2054 136.65 66.9933 136.864 66.9933C136.935 66.9933 136.935 67.064 137.007 67.2761C137.007 67.4883 137.007 67.7004 137.007 67.8418V68.4076C137.007 68.9733 136.579 69.539 135.58 70.1754C134.653 70.8119 133.869 71.1655 133.298 71.2362C132.514 71.3069 131.872 71.024 131.301 70.529C130.731 70.034 130.374 69.3976 130.303 68.6197V67.9126C130.303 67.7004 130.374 67.3468 130.588 66.9933C130.731 66.569 130.873 66.2861 131.016 65.9325H130.802C130.089 67.6297 129.019 69.044 127.664 70.1047C126.38 71.0947 125.096 71.6605 123.741 71.7312C122.814 71.8019 121.958 71.519 121.388 70.9533C120.746 70.3876 120.461 69.6804 120.461 68.8319C120.461 68.549 120.461 68.2661 120.603 67.9833L123.599 67.8418C123.527 68.6904 123.955 69.044 124.74 69.044C125.168 69.044 125.596 68.9733 125.881 68.8319C126.594 68.549 127.379 67.9833 128.163 67.2054L128.805 66.6397C128.52 66.9225 128.163 67.1347 127.806 67.2761C127.45 67.4175 127.093 67.4883 126.737 67.4883C125.81 67.559 125.025 67.2054 124.24 66.4275C123.527 65.6497 123.171 64.7304 123.171 63.6696C123.171 62.0432 123.884 60.4875 125.31 58.9317C126.879 57.3053 128.662 56.4567 130.731 56.3153C131.301 56.3153 131.8 56.386 132.3 56.6688C132.656 56.881 133.013 57.0931 133.298 57.4467L133.512 56.9517ZM132.585 59.0732C130.517 59.2146 128.876 59.7096 127.878 60.5582C127.022 61.2653 126.594 62.1139 126.594 63.1039C126.594 63.8111 126.808 64.3768 127.236 64.6597C127.521 64.8718 127.806 64.9425 128.234 64.9425C129.375 64.8718 130.231 64.3768 130.945 63.3161C131.444 62.6796 131.8 61.6896 132.157 60.4875L132.585 59.0732Z" fill="white"></path><path fill-rule="evenodd" clip-rule="evenodd" d="M87.7243 47.5466C108.621 44.4352 139.502 42.0308 143.282 52.0017C164.25 53.7696 177.301 62.2554 177.444 72.8626C177.658 91.5315 138.789 114.019 90.791 121.232C42.7931 128.445 3.63872 119.11 3.42476 100.371C3.21081 81.6313 39.7263 54.6889 87.7243 47.5466Z" fill="#EA0029"></path><path fill-rule="evenodd" clip-rule="evenodd" d="M157.831 93.7236L157.76 93.6529V93.5822V93.5115V93.4408V93.3701V93.2286V92.6629V92.5922V92.5215L157.831 92.38L157.903 92.2386L157.974 92.0972L158.045 91.9558L158.117 91.8143L158.188 91.6022L158.259 91.39L158.402 91.1779L158.545 90.9657L158.687 90.7536L158.83 90.5415L158.972 90.3293L159.044 90.2586L160.042 93.7944H159.971H159.9H159.828H159.757H159.686H159.614H159.543H159.472H159.4H159.329H159.258H159.186H159.115H158.972H158.83H158.687H158.545H158.473H158.402H158.331H158.259H158.188H158.117H158.045H157.974H157.903L157.831 93.7236ZM7.91797 85.2378V88.0664V88.7736L7.98929 89.4807L8.06061 90.1879L8.20325 90.895L8.34589 91.6022L8.55984 92.3093L8.7738 93.0165L8.98776 93.7236L9.27304 94.4308L9.55832 95.1379L9.91491 95.8451L10.2715 96.5522L10.6281 97.1887L11.056 97.8251L11.4839 98.4616L11.9119 99.098L12.4111 99.6637L12.9103 100.229L13.4096 100.795L13.9801 101.29L14.5507 101.785L15.1925 102.351L15.7631 102.775L16.405 103.199L17.0469 103.553L17.6887 103.836L18.4019 104.119L19.1151 104.331L19.8283 104.543L20.5415 104.684L21.326 104.755H22.0392H23.9648H24.2501H24.5354H24.8207H25.1059H25.3912H25.6765L25.9618 104.684L26.2471 104.614L26.5323 104.543L26.8176 104.472L27.0316 104.402L27.2455 104.331L27.4595 104.26L27.6734 104.189L27.8874 104.119L28.1014 104.048L28.3153 103.977L28.5293 103.907L28.7432 103.836L28.9572 103.765L29.1711 103.694L29.3851 103.624L29.5991 103.553L29.813 103.482L30.027 103.412L30.2409 103.341H30.3123L31.3821 103.765L40.6536 103.624V101.361V100.795V100.3L40.7249 99.8051L40.7962 99.3101L40.8675 98.8151L40.9388 98.3201L41.0102 97.8251L41.0815 97.3301L41.1528 96.8351L41.2241 96.3401L41.3668 95.8451L41.5094 95.3501L41.652 94.8551L41.7947 94.4308L41.9373 94.0065L42.08 93.5822L42.2226 93.1579L42.3652 92.7336L42.4366 92.5922L45.7886 103.624L57.6276 103.412L56.5578 101.219L56.7718 101.432L56.9857 101.644L57.1997 101.856L57.4136 101.997L57.6989 102.139L57.9842 102.28L58.2695 102.422L58.5547 102.563L58.84 102.704L59.1253 102.846L59.4106 102.917L59.6959 102.987L59.9811 103.058L60.2664 103.129L60.5517 103.199L60.837 103.27H61.1222H61.4075H61.6928H63.6184H63.9037H64.189L64.4743 103.199L64.7595 103.129L65.0448 103.058L65.3301 102.987L65.6154 102.917L65.9006 102.846L66.1859 102.775L66.4712 102.704L66.7565 102.634L67.0417 102.492L67.327 102.351L67.6123 102.209L67.8263 102.068L68.0402 101.927L68.2542 101.785L68.4681 101.644L68.6821 101.502L69.11 101.29L69.324 102.492L78.8808 102.28L78.8094 102.987L92.9307 102.846H93.3586H93.7865H94.2144L94.6423 102.775L95.0703 102.704L95.4982 102.634L95.9261 102.563L96.354 102.492L96.7819 102.422L97.2098 102.28L97.6378 102.139L98.0657 101.997L98.4936 101.856L98.9215 101.714L99.3494 101.502L99.7774 101.29L100.205 101.078L100.633 100.866L100.99 100.583L101.346 100.3L101.703 100.017L102.06 99.7344L102.416 99.3809L102.701 99.0273L102.987 98.6737L103.201 98.3201L102.844 102.704L114.968 102.563L114.897 98.3908V98.2494V98.108V97.9665L114.968 97.7544L115.04 97.5423L115.111 97.3301L115.182 97.0472L115.325 96.7644L115.468 96.4815L115.61 96.1987L115.753 95.9158L115.896 95.6329L116.109 95.3501L116.323 95.0672L116.537 94.7844L116.751 94.5015L116.965 94.2186L117.037 94.1479L116.537 102.563L128.804 102.422L127.521 88.4907V88.2079V87.925V87.6421V87.3593V87.0764V86.7935V86.5107V86.2278V86.0864L129.446 85.8742H129.66H129.874H130.088L130.302 85.8035L130.516 85.7328L130.73 85.6621L130.873 85.5914L131.015 85.5207L131.158 85.45L131.301 85.3792L131.443 85.3085L131.586 85.2378L131.728 85.1671L131.871 85.0964L132.014 85.0257L132.156 84.955L132.299 84.8842H132.442H132.584H132.727H132.87H133.012H133.155H133.297H133.44H133.583H133.725H133.868H134.011H134.225H134.367L133.654 102.351L146.278 102.209L144.994 84.6721H145.065H145.136H145.208H145.35H145.493H145.636L145.778 84.7428L145.921 84.8135L146.064 84.8842L146.206 84.955L146.42 85.0257L146.634 85.0964L146.848 85.1671L147.062 85.2378L147.276 85.3085L147.49 85.3792L147.704 85.45L147.918 85.5207L148.132 85.5914L148.346 85.6621L148.56 85.7328L148.774 85.8035L148.988 85.8742L149.202 85.945L149.416 86.0157L149.63 86.0864H149.844H150.058H150.271L152.482 86.2985L151.769 77.5299L155.62 83.1164L155.549 83.1871L155.335 83.5407L155.05 83.8942L154.765 84.2478L154.479 84.6014L154.194 84.955L153.837 85.3085L153.481 85.7328L153.124 86.1571L152.768 86.5814L152.411 87.0057L152.054 87.43L151.698 87.8543L151.341 88.2786L150.985 88.7029L150.628 89.1272L150.271 89.5514L149.915 89.9757L149.63 90.4L149.344 90.8243L149.059 91.2486L148.774 91.6729L148.488 92.0972L148.275 92.5215L148.061 93.0165L147.847 93.5115L147.704 94.0065L147.561 94.5015L147.49 94.9965V95.4915V96.1987V96.4815V96.8351L147.561 97.1887L147.633 97.4715L147.704 97.7544L147.775 98.0373L147.918 98.3201L148.061 98.603L148.203 98.8858L148.346 99.1687L148.488 99.4516L148.702 99.7344L148.916 99.9466L149.13 100.159L149.344 100.371L149.558 100.583L149.772 100.795L149.986 101.007L150.271 101.219L150.557 101.361L150.842 101.502L151.127 101.644L151.413 101.785L151.698 101.927L151.983 102.068L152.268 102.139L152.554 102.209L152.91 102.28L153.267 102.351L153.623 102.422H153.98H154.265H155.264H155.62H156.048L156.405 102.351L156.762 102.28L157.118 102.209L157.475 102.139L157.831 102.068L158.188 101.997L158.545 101.927L158.901 101.785L159.186 101.644L159.472 101.502L159.757 101.361L160.042 101.219L160.328 101.078L160.613 100.937L160.898 100.795L161.183 100.654L161.397 100.512L161.825 100.3L162.11 101.856L174.449 101.714L163.537 76.6106L151.27 76.752L151.484 77.0349L128.091 77.3177L116.68 77.4591L116.751 81.9142V81.9849V82.0556V82.1971L116.68 82.3385L116.609 82.5506L116.537 82.7628L116.466 82.9749L116.323 83.1871L116.181 83.4699L116.038 83.7528L115.896 84.0357L115.682 84.3185L115.468 84.6014L115.254 84.8842L115.04 85.1671L114.826 85.45L114.612 85.7328L114.398 86.0157L115.111 77.5299L103.129 77.6006L103.771 86.5107L103.914 92.8043L103.843 92.5922L103.7 92.3093L103.557 92.0265L103.415 91.7436L103.272 91.4607L103.129 91.1779L102.915 90.895L102.701 90.6829L102.487 90.4707L102.274 90.2586L102.06 90.0464L101.846 89.8343L101.632 89.6222L101.418 89.41L101.204 89.1979L100.99 88.9857L100.776 88.8443L100.918 88.7029L101.061 88.5614L101.204 88.42L101.346 88.2079L101.489 87.9957L101.632 87.7836L101.774 87.5714L101.846 87.3593L101.917 87.1471L101.988 86.935L102.06 86.7228L102.131 86.5107L102.202 86.2985L102.274 86.0864L102.345 85.8742V85.6621V85.45V85.2378V84.2478V83.8235L102.274 83.3992L102.202 82.9749L102.06 82.5506L101.917 82.1263L101.703 81.7728L101.489 81.4192L101.275 81.0656L100.99 80.7828L100.704 80.4999L100.419 80.217L100.134 79.9342L99.8487 79.722L99.4921 79.5099L99.1355 79.2977L98.7789 79.0856L98.4223 78.8734L98.0657 78.732L97.7091 78.5906L97.3525 78.4492L96.9959 78.3077H96.4967L96.1401 78.237L95.7835 78.1663L95.4269 78.0956L95.0703 78.0249L94.7137 77.9542L94.3571 77.8834L94.0005 77.8127H93.6439H93.2873H92.9307L79.3087 77.9542L79.38 80.9949L80.0932 88.1371L80.2358 91.39L79.6653 97.3301L71.3922 77.742L58.7687 77.8834L60.7656 80.712L60.837 80.7828L60.9083 80.8535L60.9796 80.9949L61.0509 81.1363H60.837L60.9083 81.2778L60.9796 81.4192L61.1222 81.5606L61.2649 81.7021L61.4075 81.8435L61.5502 81.9849L61.6928 82.1263L61.8354 82.2678L61.9781 82.4092L62.1207 82.5506L62.2633 82.6921L62.406 82.8335L62.5486 82.9749L62.6199 83.1164L62.6913 83.2578L62.7626 83.3992L62.8339 83.5407L62.9052 83.6821L62.9765 83.7528L62.9052 83.8235L62.7626 84.0357L62.6199 84.3185L62.2633 84.8135L62.0494 85.0964L61.7641 85.45L61.4788 85.8035L61.1936 86.1571L60.837 86.5107L60.4804 86.8643L60.1238 87.2886L59.7672 87.7128L59.4106 88.1371L59.054 88.5614L58.6261 88.915L58.2695 89.3393L57.9129 89.7636L57.5563 90.1879L57.1997 90.6122L56.7718 91.0365L56.4152 91.4607L56.1299 91.885L55.8446 92.3093L55.5593 92.7336L55.3454 93.2286L55.1314 93.7236L54.9888 94.2186L54.9174 94.7844V95.2794V97.0472L47.5002 78.237L34.6627 78.4492L37.5155 82.1971L32.5945 93.9358L32.6658 93.3701L30.027 94.1479L29.813 94.2186L29.5991 94.2894L29.3851 94.3601L29.1711 94.4308L29.0285 94.5015L28.8859 94.5722L28.7432 94.6429L28.6006 94.7136L28.458 94.7844L28.3153 94.8551L28.1727 94.9258L28.03 94.9965L27.8874 95.0672L27.7448 95.1379L27.6021 95.2087L27.4595 95.2794H27.3168H27.1742L27.0316 95.3501L26.8889 95.4208L26.7463 95.4915H26.6037H26.461H26.3184H26.1757H26.0331H25.8905H25.7478H25.5339H25.3199H25.1059H23.8935H23.6796H23.4656L23.323 95.4208L23.109 95.3501L22.895 95.2794L22.6811 95.2087L22.4671 95.0672H22.3245L22.1105 94.8551L21.8966 94.6429L21.6826 94.4308L21.4687 94.1479L21.2547 93.8651L21.0407 93.5822L20.8268 93.2993L20.6128 92.9458L20.4702 92.5922L20.3275 92.2386L20.1849 91.885V91.6022L20.0423 91.2486L19.8996 90.8243L19.757 90.4L19.6857 89.9757L19.6144 89.6222L19.4717 89.1979L19.4004 88.7736L19.3291 88.42L19.2578 88.0664V87.7128V87.3593V87.0057V85.1671V84.8135V84.4599V84.1064L19.3291 83.7528L19.4004 83.3992L19.4717 83.0456L19.543 82.6921L19.6144 82.3385L19.6857 81.9849L19.8283 81.6313L19.9709 81.2778L20.1136 80.9949L20.2562 80.712L20.3989 80.4292L20.5415 80.1463L20.6841 79.8635L20.8268 79.5806L21.0407 79.3685L21.2547 79.1563L21.4687 78.9442L21.6826 78.732L21.8966 78.5199L22.1105 78.3784L22.3245 78.237L22.5384 78.0956L22.7524 77.9542L23.0377 77.8834L23.323 77.8127L23.6082 77.742L23.8935 77.6713H24.1788H24.5354H24.7493H24.9633H25.1773H25.3912H25.5339H25.6765H25.8191H25.9618H26.1044H26.1757H26.2471H26.3184H26.3897H26.461L26.5323 77.742L26.6037 77.8127L26.675 77.8834L26.7463 77.9542L26.8176 78.0249L26.8889 78.0956L27.0316 78.1663L27.1742 78.237L27.3168 78.3077L27.4595 78.3784L27.6021 78.4492L27.7448 78.5199L27.8874 78.5906L28.03 78.6613L28.244 78.732L28.458 78.8027L28.6719 78.8734L30.8115 79.4392L32.3092 68.6905H30.0983H29.9557H29.813H29.6704H29.5277H29.3851H29.2425H29.0998H28.9572H28.8146H28.6719H28.5293L28.3866 68.6197L28.1014 68.4076H27.9587L27.7448 68.3369L27.5308 68.2662H27.3168L27.1029 68.1955L26.8889 68.1247L26.675 68.054L26.461 67.9833L26.2471 67.9126H26.0331H25.8191H25.5339H25.2486H24.9633H24.678H24.3928H24.1075H23.8222H22.8237H22.0392L21.1834 67.9833L20.3989 68.1247L19.6144 68.3369L18.8298 68.549L18.0453 68.8319L17.3321 69.1148L16.6189 69.4683L15.9057 69.8219L15.2639 70.2462L14.622 70.6705L14.0514 71.2362L13.4809 71.7312L12.9103 72.2969L12.4111 72.8627L11.9119 73.4284L11.4126 74.0648L10.9847 74.772L10.5568 75.4084L10.2002 76.1156L9.84359 76.8227L9.487 77.5299L9.20172 78.237L8.91644 79.0149L8.70248 79.722L8.48852 80.4999L8.34589 81.2778L8.20325 82.0556L8.06061 82.8335L7.98929 83.6114L7.91797 84.3892V85.2378ZM64.9735 94.4308V94.0065V93.9358V93.8651V93.7944V93.7236L65.0448 93.5822L65.1161 93.4408L65.1874 93.2993L65.2588 93.1579L65.3301 93.0165L65.4014 92.8751L65.4727 92.6629L65.544 92.4508L65.6867 92.2386L65.8293 92.0265L65.972 91.8143L66.1146 91.6022L66.2572 91.39L66.3999 91.2486L67.6123 94.6429H67.541H67.4697H67.3983H67.327H67.2557H67.1844H67.1131H67.0417H66.9704H66.8991H66.8278H66.7565H66.6851H66.6138H66.5425H66.4712H66.3285H66.1146H66.0433H65.972H65.9006L65.758 94.5722L65.6154 94.5015L65.4727 94.4308L65.3301 94.3601L65.1874 94.2894L65.1161 94.6429L65.0448 94.5722L64.9735 94.4308ZM90.2919 95.3501H89.8639V93.5822H92.1462H92.3601H92.5028H92.6454H92.788L92.8594 93.6529L92.9307 93.7236L93.002 93.7944L93.0733 93.8651L93.1446 93.9358L93.216 94.0065V94.0772V94.1479V94.2186V94.2894V94.3601V94.5015V94.7136V94.8551V94.9258V94.9965V95.0672H93.1446H93.0733H93.002H92.9307H92.8594H92.7167H92.5741H92.4315H92.2888H92.1462H92.0035H91.8609H91.6469H91.433H91.219H91.0051H90.7911H90.5771L90.2919 95.3501ZM89.7926 84.955H91.0764H91.2903H91.433H91.5756H91.7183L91.7896 85.0257L91.8609 85.0964L91.9322 85.1671L92.0035 85.2378L92.0749 85.3085L92.1462 85.3792V85.45V85.5207V85.5914V85.6621V85.7328V85.8742V86.0157V86.1571V86.2278V86.2985V86.3693V86.44V86.5107H92.0749H92.0035H91.9322H91.8609H91.7183H91.5756H89.9353L89.7926 84.955Z" fill="#EA0029"></path><path fill-rule="evenodd" clip-rule="evenodd" d="M155.976 93.2993V92.6629C155.976 91.0365 158.757 87.3593 159.899 87.0764L162.252 95.0672C161.254 95.2794 160.326 95.7037 159.114 95.7037C157.26 95.7037 156.047 95.1379 155.976 93.2993ZM9.69993 85.2378V87.9957C9.77125 94.9258 15.3342 103.058 22.0382 102.987H23.8925C26.8166 102.987 28.5283 102.068 30.3112 101.078L30.6678 95.8451C28.8135 96.3401 27.8151 97.4008 25.1049 97.4715H23.8925C19.9699 97.5422 17.6164 91.3193 17.5451 87.0764V85.2378C17.4737 80.712 19.8273 75.9741 24.6057 75.9034C27.6011 75.9034 27.8151 76.9641 29.5267 77.3884L30.4539 70.5998C28.243 70.5998 26.8166 69.6805 23.8925 69.7512H22.9653C14.9062 69.7512 9.62861 77.5299 9.69993 85.2378ZM39.5114 81.9849L31.2384 101.644L31.595 101.785L38.7269 101.714C38.6556 95.3501 41.3657 90.8243 41.651 86.5814H42.2929L46.8573 101.644L54.7738 101.502L46.2868 80.0049L38.085 80.1463L39.5114 81.9849ZM63.1895 94.0065C63.1895 92.2386 65.757 88.7736 67.1834 88.42L69.8935 96.0572C68.0392 96.1279 68.0392 96.7644 66.3989 96.7644H66.1136C64.9011 96.7644 63.3321 95.6329 63.2608 94.6429L63.1895 94.0065ZM64.6159 83.8235C64.6159 86.2985 56.6281 91.9558 56.6281 95.3501V97.5422C56.6281 99.8758 59.2669 101.502 61.6918 101.502H63.5461C65.4717 101.502 68.7524 99.3808 70.3927 98.9566L70.678 100.795L78.7371 100.583L69.8222 79.5099L61.6918 79.5806C62.2623 80.217 64.6159 83.1871 64.6159 83.8235ZM129.374 84.3185C131.299 84.1771 132.227 83.3992 134.723 83.3285H136.292L136.506 84.8842L135.579 100.654L144.422 100.583L143.139 82.9749H144.993C145.92 82.9749 148.987 84.0357 150.342 84.1771L149.914 78.9442L129.73 79.1563L129.374 84.3185ZM90.3622 97.118H88.1513L88.0799 91.885L92.1451 91.8143C93.6429 91.8143 94.9266 92.6629 94.9979 94.2186V94.5015C94.9979 96.9058 92.6444 97.118 90.3622 97.118ZM88.0086 83.2578L91.1467 83.1871C92.6444 83.1871 93.9281 84.0357 93.9995 85.5914C93.9995 87.0764 93.0723 88.0664 91.5033 88.0664L88.0799 88.1371L88.0086 83.2578ZM80.8054 80.8535L81.5186 87.925L81.6612 91.3193L80.734 101.219L92.8583 101.078C97.1375 101.007 102.486 99.3808 102.415 95.4208V94.5015C102.415 92.38 99.6337 89.7636 97.7081 89.6222V88.9857C98.9205 88.6321 100.49 86.7228 100.49 85.2378V84.3185C100.418 81.1363 96.139 79.4392 92.6444 79.4392L80.8054 79.6513V80.8535ZM105.553 86.44L105.696 93.5822L105.054 100.937L113.47 100.866V98.3908C113.47 95.6329 117.535 90.895 119.46 89.6929L118.819 100.795L127.234 100.724L126.093 88.7029C125.737 85.5207 126.878 81.9142 126.949 79.1563L118.533 79.227V81.9849C118.533 84.0357 114.325 89.3393 112.685 89.7636L112.542 86.6521L113.184 79.227L105.054 79.2977L105.553 86.44ZM157.474 82.6921C155.477 86.5107 149.129 91.4607 149.129 95.2087V95.8451C149.129 98.2494 151.483 100.442 154.193 100.442H155.12C158.686 100.371 161.468 98.0373 163.179 97.8958L163.536 100.017L171.666 99.8759L162.323 78.3784L154.55 78.4492L157.474 82.6921Z" fill="white"></path><path fill-rule="evenodd" clip-rule="evenodd" d="M68.5386 69.8218L70.8921 67.1346C71.3913 66.5689 71.8906 65.9325 72.3898 65.296C72.889 64.6596 73.3883 63.9525 73.9588 63.2453L76.2411 59.9924L78.3806 56.7395L79.6644 54.6181L80.9481 52.0723H86.3684L84.942 55.9616L83.373 60.9117C83.2304 61.336 83.0877 61.831 83.0164 62.326C82.8738 62.7503 82.8024 63.2453 82.7311 63.6696C82.6598 64.0939 82.5172 64.5889 82.4459 65.0132C82.3745 65.5082 82.3032 66.0032 82.2319 66.4982L82.0893 67.7711V69.1147C82.0893 69.3268 82.0893 69.4682 82.1606 69.539C82.1606 69.539 82.2319 69.6097 82.3032 69.6097C82.5172 69.6097 82.8738 69.4682 83.2304 69.1854C83.6583 68.9025 84.1575 68.4075 84.7994 67.8418C85.3699 67.2761 85.8692 66.6396 86.4397 66.0032C86.939 65.3668 87.4382 64.7303 87.9374 64.0939L90.0057 61.2653L92.3592 57.871L94.4988 54.5473L96.2105 51.5066H101.631L101.417 52.0723C100.704 53.9109 100.062 55.5374 99.4912 57.0224C98.9206 58.5074 98.4927 59.7803 98.1361 60.9117L97.2803 63.811L96.6384 66.2861L96.2105 68.6197C96.1392 69.1147 96.1392 69.539 96.1392 69.8218C96.1392 70.1754 96.2105 70.3875 96.2818 70.5997C96.3531 70.7411 96.4245 70.8825 96.5671 70.9533C96.7097 71.024 96.9237 71.0947 97.209 71.0947C97.4942 71.0947 97.7082 71.0947 97.9222 71.024C98.1361 70.9533 98.2788 70.9533 98.4214 70.8825C98.564 70.8118 98.7067 70.7411 98.8493 70.6704C98.9206 70.5997 99.0633 70.529 99.0633 70.4583V70.3875L99.7051 69.8218L100.418 70.2461L100.347 70.529L99.9904 71.8726C99.9191 72.2261 99.7051 72.5797 99.3485 72.8626C99.0633 73.1454 98.6354 73.3576 98.1361 73.499C97.6369 73.6404 97.209 73.7112 96.8524 73.7819C96.4245 73.8526 96.0679 73.9233 95.7826 73.9233C95.212 73.9233 94.6415 73.7819 94.2136 73.5697C93.7856 73.3576 93.3577 72.9333 93.0724 72.509C92.7872 72.0847 92.5732 71.519 92.5019 70.8118C92.4306 70.1754 92.4306 69.3975 92.5019 68.5489C92.5732 67.9832 92.6445 67.4175 92.8585 66.7104C93.0011 66.0032 93.2151 65.2253 93.5004 64.306C93.7856 63.4575 93.9996 62.5382 94.2849 61.6896C94.5701 60.841 94.8554 59.9924 95.1407 59.1438L95.8539 57.1638L96.0678 56.4567L94.1422 59.2853C93.2151 60.6996 92.3592 61.9724 91.5747 63.1039C90.7902 64.2353 90.0057 65.296 89.3638 66.2153C88.722 67.1346 88.0801 67.9125 87.4382 68.6197C86.7963 69.3268 86.2258 69.9632 85.6552 70.529C84.5854 71.6604 83.587 72.4383 82.7311 73.004C81.804 73.5697 81.0908 73.8526 80.3776 73.8526C79.9497 73.8526 79.5218 73.7112 79.2365 73.4283C78.9512 73.1454 78.6659 72.7919 78.452 72.2969C78.238 71.8018 78.0954 71.1654 78.0954 70.3875C78.0954 69.6097 78.0954 68.6904 78.238 67.6297C78.3093 66.9225 78.452 66.1446 78.6659 65.2253C78.8799 64.306 79.0938 63.316 79.4504 62.1846C79.7357 61.0531 80.0923 59.9924 80.3776 59.0731C80.6629 58.2245 80.9481 57.4467 81.1621 56.6688H81.0908C79.0938 60.346 76.8116 63.7403 74.4581 67.2054L74.1728 67.6297L73.8875 67.9832L73.6736 68.1954C72.6038 69.539 71.6053 70.7411 70.5355 72.0847C65.4718 78.4491 54.346 76.8933 58.1973 72.3676C59.695 70.4583 64.83 74.5597 68.5386 69.8218ZM118.248 65.1546C118.177 65.9325 117.963 66.7104 117.606 67.4882C117.25 68.1954 116.822 68.9025 116.323 69.539C115.752 70.1754 115.181 70.7411 114.468 71.2361C113.826 71.7311 113.042 72.2261 112.257 72.5797C111.473 72.9333 110.688 73.2161 109.904 73.4283C109.119 73.6404 108.335 73.7112 107.622 73.7112C107.051 73.7112 106.552 73.6404 106.053 73.5697C105.553 73.4283 105.054 73.2869 104.555 73.0747C104.056 72.8626 103.699 72.5797 103.271 72.2261C102.915 71.8726 102.558 71.4483 102.344 71.024C102.059 70.529 101.916 70.034 101.773 69.539C101.702 69.044 101.702 68.4782 101.773 67.8418C101.845 67.2761 101.987 66.6396 102.201 66.1446C102.415 65.5789 102.701 65.0839 103.128 64.5889C103.485 64.0939 103.913 63.6696 104.341 63.2453C104.769 62.821 105.268 62.4674 105.767 62.1139C106.267 61.7603 106.837 61.4774 107.408 61.1946C107.978 60.9117 108.62 60.6996 109.262 60.4167C109.904 60.2046 110.546 60.0631 111.188 59.9217C111.829 59.7803 112.471 59.7803 113.113 59.7803C113.612 59.7803 114.112 59.851 114.611 59.9217C115.039 59.9924 115.467 60.2046 115.895 60.4167C116.109 60.4874 116.323 60.6288 116.465 60.7703C116.679 60.9117 116.822 61.0531 116.964 61.1946C117.107 61.336 117.25 61.5481 117.392 61.6896C117.535 61.9017 117.678 62.1139 117.749 62.326C117.963 62.7503 118.106 63.2453 118.177 63.7403C118.32 64.0939 118.32 64.6596 118.248 65.1546ZM114.54 64.8718C114.611 64.4475 114.54 64.0939 114.468 63.7403C114.397 63.3867 114.183 63.1039 113.898 62.821C113.612 62.6089 113.256 62.3967 112.899 62.2553C112.471 62.1139 112.043 62.0432 111.544 62.0432C111.116 62.0432 110.688 62.1139 110.26 62.2553C109.833 62.3967 109.405 62.6089 108.905 62.8917C108.477 63.1746 108.05 63.5282 107.693 63.9525C107.336 64.3768 106.908 64.8718 106.623 65.4375C106.267 66.0032 106.053 66.4982 105.839 67.0639C105.625 67.5589 105.553 68.0539 105.482 68.5489C105.411 69.044 105.482 69.4682 105.553 69.8218C105.625 70.1754 105.839 70.3875 106.053 70.5997C106.338 70.8118 106.623 71.024 106.98 71.0947C107.336 71.2361 107.693 71.2361 108.121 71.2361C108.549 71.2361 108.977 71.1654 109.333 71.0947C109.761 71.024 110.118 70.8825 110.474 70.6704C110.831 70.4583 111.188 70.2461 111.544 69.9633C111.901 69.6804 112.186 69.3975 112.543 69.044C112.828 68.6904 113.042 68.4075 113.256 68.1247C113.47 67.8418 113.612 67.5589 113.755 67.3468L114.326 66.0032L114.54 64.8718ZM136.506 70.4583L136.435 70.8118L136.363 71.3776C136.292 71.6604 136.149 71.9433 135.793 72.2261C135.507 72.4383 135.08 72.7211 134.58 73.004C133.582 73.499 132.726 73.7819 132.155 73.7819C131.799 73.7819 131.442 73.7112 131.086 73.5697C130.729 73.4283 130.444 73.2869 130.087 73.004C129.731 72.7211 129.517 72.4383 129.374 72.0847C129.231 71.7311 129.16 71.3776 129.231 70.9533C129.303 70.3875 129.445 69.8925 129.659 69.3975C129.303 69.8925 128.875 70.3168 128.304 70.8118C127.805 71.3068 127.163 71.7311 126.521 72.2261C125.808 72.7211 125.095 73.0747 124.31 73.3576C123.526 73.5697 122.741 73.7112 121.885 73.7112C120.673 73.7112 119.817 73.3576 119.318 72.7211C119.104 72.3676 118.89 72.014 118.819 71.6604C118.747 71.2361 118.747 70.8118 118.747 70.3875L118.819 70.034H122.028L121.957 70.4583C121.957 70.529 121.957 70.6704 121.957 70.7411C121.957 71.024 122.028 71.2361 122.171 71.3776C122.313 71.519 122.527 71.6604 122.884 71.6604C122.955 71.6604 123.098 71.6604 123.241 71.6604C123.668 71.6604 124.096 71.5897 124.524 71.3776C125.024 71.1654 125.523 70.8825 126.093 70.4583C126.664 70.034 127.163 69.6097 127.662 69.1147L127.591 69.1854C127.02 69.3975 126.521 69.539 126.022 69.539C125.737 69.539 125.451 69.539 125.095 69.4682C124.81 69.3975 124.524 69.3268 124.239 69.2561C123.954 69.1147 123.668 68.9732 123.383 68.7611C123.098 68.5489 122.884 68.3368 122.67 68.0539C122.456 67.7711 122.313 67.4175 122.171 67.0639C122.099 66.7104 122.099 66.3568 122.099 65.9325C122.171 65.4375 122.313 65.0132 122.527 64.5182C122.741 64.0232 123.027 63.5989 123.455 63.1039C123.811 62.6089 124.31 62.1846 124.81 61.7603C125.309 61.336 125.879 60.9824 126.521 60.6288C127.163 60.2753 127.876 60.0631 128.59 59.851C129.303 59.7096 130.087 59.5681 130.943 59.5681C131.514 59.5681 132.084 59.6388 132.583 59.7803C132.94 59.9217 133.368 60.0631 133.724 60.2753L134.01 59.7096H137.005L135.507 63.1039C135.151 63.8817 134.866 64.6596 134.438 65.4375C133.867 66.7104 133.368 67.8418 133.011 68.7611C132.655 69.6097 132.512 70.2461 132.441 70.6704V70.8118C132.441 70.9533 132.441 71.024 132.512 71.0947C132.583 71.1654 132.655 71.1654 132.869 71.2361H133.083C133.225 71.2361 133.439 71.2361 133.582 71.1654C133.796 71.0947 134.01 71.024 134.224 70.8825L134.58 70.6704L135.365 70.2461L136.72 69.3975L136.506 70.4583ZM133.011 61.9017C132.797 61.6896 132.512 61.5481 132.227 61.4774C131.87 61.336 131.442 61.2653 130.943 61.2653C130.159 61.2653 129.374 61.5481 128.661 62.0432C128.447 62.1846 128.304 62.2553 128.09 62.3967C127.948 62.5382 127.734 62.6796 127.591 62.821C127.448 62.9624 127.306 63.1039 127.163 63.316C127.02 63.4575 126.878 63.6696 126.807 63.811C126.307 64.5182 126.022 65.2253 125.951 65.8618C125.951 66.0032 125.951 66.1446 126.022 66.2861C126.093 66.4275 126.165 66.5689 126.307 66.7811C126.45 66.9225 126.593 67.0639 126.878 67.1346C127.092 67.2054 127.448 67.2761 127.734 67.2761C128.09 67.2761 128.376 67.2054 128.661 67.1346C128.946 67.0639 129.303 66.9225 129.659 66.7104C130.016 66.4982 130.301 66.2861 130.658 65.9325C131.014 65.6496 131.3 65.2253 131.656 64.801C132.013 64.3768 132.298 63.8817 132.512 63.3867C132.655 62.9624 132.869 62.4674 133.011 61.9017Z" fill="white"></path></svg> 