<?xml version="1.0" encoding="UTF-8"?> <svg xmlns="http://www.w3.org/2000/svg" width="180" height="160" viewBox="0 0 180 160" fill="none"><path d="M4.52767 75.5692C4.39464 75.7025 4.12858 75.5692 3.99555 75.3028C3.86252 75.1695 3.99555 74.903 4.26161 74.7698C17.4317 69.4399 31.3999 65.3092 45.6342 62.511C59.6025 59.8461 73.9698 58.3804 88.7363 58.3804C104.035 58.3804 118.934 59.8461 133.302 62.7775C148.068 65.709 162.302 70.1061 175.872 75.8357C176.005 75.969 176.138 76.1022 176.138 76.3687C176.138 76.6352 175.872 76.6352 175.606 76.6352C162.036 70.9056 147.802 66.6417 133.169 63.577C118.801 60.6456 104.035 59.1799 88.7363 59.1799C73.9698 59.1799 59.6025 60.6456 45.7673 63.3105C31.533 66.242 17.6977 70.2394 4.52767 75.5692Z" fill="#F5B300"></path><path d="M20.0921 113.944C19.9591 114.078 19.693 113.944 19.56 113.678C19.427 113.545 19.56 113.278 19.8261 113.145C30.7346 108.748 42.0422 105.283 53.882 103.018C65.3227 100.753 77.1624 99.5537 89.4013 99.5537C101.906 99.5537 114.012 100.753 125.852 103.151C137.958 105.55 149.664 109.147 160.706 113.811C160.839 113.944 160.972 114.078 160.972 114.344C160.972 114.611 160.706 114.611 160.44 114.611C149.398 109.947 137.692 106.349 125.719 103.951C114.012 101.552 101.906 100.353 89.4013 100.353C77.2954 100.353 65.4557 101.552 54.015 103.684C42.1753 106.216 30.8676 109.547 20.0921 113.944Z" fill="#F5B300"></path><path d="M23.4175 79.4335L24.4818 79.0337L28.3397 84.7634L27.1424 85.6961C25.546 83.9639 24.0827 82.8979 22.6194 82.4982C21.156 82.0984 19.6927 82.0984 18.3624 82.4982C16.2339 83.1644 14.7705 84.6301 13.9723 86.8953C13.1742 89.1605 13.1742 91.4257 13.9723 93.8242C14.5045 95.5564 15.4357 97.0221 16.633 98.2213C17.8302 99.4205 19.1605 100.22 20.6239 100.487C22.0872 100.886 23.4175 100.753 24.8809 100.353C25.8121 100.087 26.4772 99.5538 27.2754 99.0208C27.9406 98.4878 28.4727 97.8216 28.8718 97.2886C29.1379 96.8889 29.2709 96.3559 29.2709 95.9561C29.2709 95.5564 29.1379 94.8901 28.8718 94.2239L28.3397 93.2912C28.0736 92.4917 27.8076 91.9587 27.5415 91.6922C27.2754 91.4257 26.8763 91.2925 26.4772 91.2925C26.2112 91.2925 25.546 91.4257 24.3488 91.8255L23.9497 90.6262L32.1976 87.828L32.5967 89.0273L31.9315 89.2938C31.3994 89.427 31.0003 89.6935 30.8673 89.8268C30.7342 89.96 30.6012 90.2265 30.6012 90.493C30.6012 90.7595 30.7342 91.2925 30.8673 91.9587L33.2618 99.0208L31.7985 99.5538L30.4682 97.9548C29.803 98.8876 29.1379 99.5538 28.3397 100.22C27.1424 101.153 25.8121 101.952 24.4818 102.352C21.6881 103.285 19.0275 103.018 16.3669 101.686C13.7063 100.353 11.8438 98.2213 10.9126 95.1566C9.84838 92.2252 9.98141 89.2938 11.3117 86.6288C12.642 83.9639 14.6375 82.0984 17.4311 81.1657C18.0963 80.8992 18.8945 80.766 19.5596 80.6327C20.2248 80.4995 21.023 80.4995 21.5551 80.6327C22.0872 80.6327 22.6194 80.7659 23.2845 81.0324L23.4175 79.4335ZM33.1288 76.502L41.2437 74.6366L41.5098 75.9691H40.9776C40.3125 76.1023 39.9134 76.2356 39.6473 76.502C39.5143 76.6353 39.3813 76.9018 39.2482 77.1683C39.2482 77.4348 39.2482 77.9678 39.3813 78.634L41.5098 88.0945C41.9088 89.8268 42.441 91.026 42.9731 91.6922C43.6382 92.3584 44.4364 92.8914 45.5007 93.2912C46.5649 93.5577 47.6292 93.6909 48.8265 93.4244C50.0237 93.1579 50.955 92.6249 51.8862 91.8255C52.8174 91.026 53.3495 90.0933 53.6156 89.1605C53.8816 88.2278 53.7486 86.8953 53.3495 85.1631L51.221 76.1023C51.088 75.4361 50.8219 74.9031 50.6889 74.6366C50.4228 74.3701 50.2898 74.2368 49.8907 74.1036C49.6246 73.9703 49.2255 74.1036 48.5604 74.2368L48.0283 74.3701L47.7622 73.0376L54.8128 71.4387L55.0789 72.7711L54.5468 72.9044C53.7486 73.0376 53.2165 73.3041 52.9504 73.7039C52.6844 74.1036 52.6844 74.6366 52.9504 75.5693L55.2119 85.2964C55.611 87.0286 55.611 88.6275 55.2119 89.96C54.8128 91.2925 54.0147 92.4917 52.9504 93.4244C51.8862 94.3572 50.4228 95.1566 48.8265 95.4231C47.2301 95.8229 45.7667 95.8229 44.1704 95.4231C42.707 95.0234 41.5098 94.3572 40.7116 93.4244C39.9134 92.4917 39.2482 91.2925 38.8491 89.6935L36.5876 79.3002C36.4546 78.634 36.3215 78.2343 36.0555 77.9678C35.9225 77.7013 35.6564 77.568 35.3903 77.568C35.1243 77.568 34.7252 77.568 34.193 77.7013L33.3949 77.8345L33.1288 76.502ZM75.2996 69.5732L76.3639 69.4399L78.4924 75.9691L77.1621 76.502C76.0978 74.7698 74.7675 73.3041 73.1711 72.3714C71.8408 71.5719 70.5105 71.1722 68.9141 71.3054C67.9829 71.4387 67.1847 71.5719 66.5196 71.9716C65.8544 72.3714 65.3223 72.7711 65.0562 73.3041C64.7902 73.8371 64.6571 74.3701 64.6571 74.9031C64.6571 75.4361 64.9232 75.8358 65.1893 76.2355C65.4553 76.6353 65.9875 77.035 66.5196 77.3015C67.0517 77.568 68.1159 77.8345 69.4463 78.2343L73.5702 79.0337C74.1023 79.167 74.7675 79.3002 75.8317 79.7C76.763 80.0997 77.5611 80.3662 78.0933 80.8992C78.6254 81.2989 79.1575 81.8319 79.4236 82.4982C79.8227 83.1644 79.9557 83.8306 80.0887 84.6301C80.2218 86.3623 79.5566 87.828 78.2263 89.2938C76.763 90.6262 74.9005 91.4257 72.506 91.6922C71.3087 91.8255 70.1114 91.6922 69.1802 91.4257C68.249 91.1592 67.0517 90.6262 65.8544 89.8268L65.3223 91.9587L64.258 92.092L62.2626 84.4969L63.7259 84.0971C64.3911 85.4296 65.1893 86.6288 66.1205 87.5616C67.0517 88.4943 68.1159 89.1605 69.1802 89.5603C70.2444 89.96 71.3087 90.0932 72.506 90.0932C73.9693 89.96 75.2996 89.427 76.3639 88.4943C77.2951 87.6948 77.6942 86.7621 77.5611 85.6961C77.4281 84.7634 77.029 83.9639 76.3639 83.4309C75.6987 82.8979 74.3684 82.3649 72.639 82.0984L68.6481 81.2989C66.3865 80.8992 64.7902 80.0997 63.859 79.3002C62.9277 78.3675 62.3956 77.3015 62.2626 76.1023C62.1296 75.1696 62.3956 74.2368 62.9277 73.3041C63.4599 72.3714 64.258 71.7051 65.4553 71.0389C66.6526 70.3727 67.8499 69.9729 69.3132 69.8397C70.5105 69.7064 71.7078 69.8397 72.772 70.2394C73.5702 70.5059 74.3684 70.7724 75.0336 71.3054L75.2996 69.5732ZM84.3457 68.2407H85.41L85.543 69.0402L98.7131 69.4399L98.8461 68.7737H100.043L102.172 75.1696L100.709 75.7026C100.043 73.9703 99.3782 72.7711 98.447 72.1049C97.5158 71.4387 96.3185 71.0389 94.9882 71.0389C94.3231 71.0389 94.057 71.0389 93.924 71.0389C93.7909 71.0389 93.7909 71.1722 93.6579 71.3054C93.6579 71.4387 93.5249 71.8384 93.5249 72.3714L93.1258 87.4283C93.1258 88.0945 93.1258 88.6275 93.2588 88.894C93.3918 89.1605 93.3918 89.2938 93.5249 89.427C93.6579 89.5603 93.7909 89.6935 94.057 89.6935C94.323 89.6935 94.8552 89.8268 95.7864 89.8268V91.1592L87.4054 90.6262V89.2938C88.3367 89.2938 88.8688 89.2938 89.1348 89.2938C89.5339 89.1605 89.8 89.0273 89.933 88.7608C90.0661 88.4943 90.1991 87.9613 90.1991 87.1618L90.5982 71.8384C90.5982 71.3054 90.5982 71.0389 90.5982 70.9057C90.5982 70.7724 90.4652 70.7724 90.3321 70.6392C90.1991 70.6392 89.933 70.5059 89.5339 70.5059C88.4697 70.5059 87.5385 70.6392 86.8733 70.9057C86.2082 71.1722 85.543 71.7051 84.8778 72.3714C84.2127 73.0376 83.6806 73.9703 83.2815 75.0363L81.9512 74.5033L84.3457 68.2407ZM113.48 70.3727L116.007 70.6392L120.397 89.5603C120.663 90.493 120.796 91.1592 121.195 91.4257C121.461 91.6922 121.86 91.9587 122.526 92.092H122.925L122.792 93.4244L115.076 92.4917L115.209 91.1592C115.475 91.1592 115.741 91.1592 115.874 91.1592C116.406 91.1592 116.672 91.1592 116.805 91.1592C117.071 91.026 117.337 90.7595 117.337 90.493C117.337 90.2265 117.337 89.6935 117.071 88.894L116.14 84.4969L108.424 83.5641L106.429 87.9613C106.163 88.361 106.03 88.7608 106.03 88.894C106.03 89.1605 106.03 89.2938 106.163 89.427C106.296 89.5603 106.429 89.6935 106.562 89.8268C106.695 89.96 107.094 89.96 107.493 90.0932C107.759 90.0932 108.025 90.2265 108.158 90.2265L108.025 91.559L101.507 90.6262L101.64 89.2938C102.172 89.427 102.704 89.427 102.97 89.2938C103.236 89.1605 103.502 89.0273 103.768 88.7608C104.034 88.4943 104.3 87.9613 104.699 87.1618L113.48 70.3727ZM109.356 82.0984L116.007 82.8979L113.879 73.3041L109.356 82.0984ZM129.177 72.5046L139.953 75.0363C141.948 75.5693 143.545 76.1023 144.476 76.7685C145.407 77.4348 146.072 78.2343 146.471 79.167C146.87 80.0997 146.87 81.1657 146.737 82.2317C146.471 83.2976 145.939 84.2304 145.274 85.0299C144.476 85.6961 143.545 86.2291 142.48 86.4956C141.283 86.7621 139.953 86.6288 138.223 86.3623L142.214 94.4904C142.48 95.1566 142.746 95.5564 142.879 95.6896C143.145 96.0894 143.411 96.3559 143.811 96.6224C144.21 96.8889 144.609 97.0221 145.008 97.1553L145.407 97.2886L145.141 98.6211L140.352 97.5551L135.031 85.6961L132.37 85.0299L130.907 91.559C130.774 92.2252 130.641 92.7582 130.641 92.8914C130.641 93.2912 130.774 93.5577 131.04 93.6909C131.306 93.8242 131.705 94.0907 132.37 94.2239L132.902 94.3572L132.636 95.6896L124.654 93.8242L124.92 92.4917L125.585 92.6249C126.117 92.7582 126.517 92.7582 126.65 92.7582C126.916 92.7582 127.049 92.6249 127.182 92.4917C127.315 92.3585 127.581 92.092 127.581 91.9587C127.581 91.8255 127.714 91.2925 127.98 90.493L131.04 76.502C131.173 75.8358 131.173 75.4361 131.173 75.1696C131.173 74.9031 131.04 74.6366 130.774 74.5033C130.641 74.3701 130.241 74.2368 129.709 74.1036L128.911 73.9703L129.177 72.5046ZM134.232 75.4361L132.37 83.4309L136.627 84.3636C138.09 84.7634 139.154 84.8966 139.82 84.7634C140.751 84.7634 141.416 84.3636 142.081 83.8306C142.746 83.2976 143.145 82.4982 143.411 81.5654C143.545 80.766 143.545 79.9665 143.411 79.3002C143.145 78.634 142.879 78.101 142.347 77.7013C141.815 77.3015 140.884 76.9018 139.687 76.6353L134.232 75.4361ZM153.389 78.634L170.018 84.2304L170.151 90.2265H168.687C168.687 89.2938 168.554 88.361 168.288 87.828C168.022 87.1618 167.756 86.6288 167.357 86.0958C166.958 85.5628 166.426 85.1631 166.027 84.8966C165.495 84.6301 164.563 84.2304 163.1 83.6974L158.178 81.9652L155.65 89.427L158.178 90.2265C159.109 90.493 159.774 90.6262 160.439 90.493C160.972 90.3597 161.504 90.0932 161.77 89.6935C162.036 89.427 162.302 88.7608 162.568 87.9613L162.701 87.5616L164.164 88.0945L161.105 97.1553L159.641 96.6224L159.907 95.8229C160.173 95.1566 160.306 94.6237 160.306 94.2239C160.306 93.8242 160.173 93.5577 160.04 93.1579C159.907 92.7582 159.641 92.4917 159.375 92.3584C159.109 92.092 158.577 91.9587 157.779 91.6922L155.251 90.8927L152.99 97.5551C152.724 98.2213 152.591 98.6211 152.724 98.8876C152.724 99.0208 152.857 99.1541 152.99 99.2873C153.123 99.4205 153.522 99.5538 154.187 99.8203L157.247 100.886C158.976 101.419 160.306 101.686 161.504 101.686C162.568 101.552 163.632 101.286 164.696 100.62C165.495 100.22 166.426 99.4205 167.357 98.3546L168.554 99.2873L164.164 104.884L146.87 99.0208L147.269 97.8216L147.802 97.9548C148.467 98.2213 148.866 98.2213 149.132 98.2213C149.398 98.2213 149.664 98.0881 149.93 97.8216C150.063 97.6883 150.329 97.2886 150.462 96.6224L155.251 82.4982C155.517 81.8319 155.517 81.4322 155.517 81.1657C155.517 80.8992 155.251 80.6327 154.985 80.4995C154.852 80.3662 154.32 80.0997 153.256 79.8332L153.389 78.634Z" fill="#7D411B"></path><path fill-rule="evenodd" clip-rule="evenodd" d="M79.4232 119.141C79.4232 120.074 78.7581 120.607 78.226 120.207C76.2305 119.141 74.6341 117.808 74.6341 115.144C74.6341 114.477 75.1662 114.078 75.8314 114.477C77.4278 115.543 79.2902 116.609 79.4232 119.141ZM70.7762 120.207C71.4414 120.473 71.5744 121.14 71.0423 121.539C69.4459 123.138 68.3817 122.339 67.3174 121.406C66.7853 120.873 66.7853 120.34 67.4505 119.94C68.5147 119.407 69.712 119.674 70.7762 120.207ZM58.0052 113.811C57.3401 113.145 57.6062 112.479 58.4043 112.479C60.3998 112.345 61.5971 111.946 62.6613 113.678C63.0604 114.344 62.7944 114.877 61.9962 115.01C60.5328 115.01 59.2025 114.877 58.0052 113.811ZM55.7437 121.14C56.4089 120.74 56.941 121.006 57.074 121.673C57.4731 124.204 56.2758 124.471 54.6795 125.67C53.8813 126.203 53.2161 125.937 53.2161 125.137C53.3492 123.272 54.4134 122.206 55.7437 121.14ZM57.3401 117.942C56.941 118.208 56.6749 118.341 56.4089 118.608C53.3492 120.473 49.4913 123.138 52.551 129.667C52.817 130.2 52.9501 130.334 53.2161 130.334C53.3492 130.334 53.3492 130.067 53.6152 129.534C54.6795 127.269 60.2668 127.136 58.8034 120.207C58.6704 119.674 58.8034 119.141 59.2025 118.874C62.3953 116.609 65.0559 116.476 67.1844 117.142C67.9826 117.409 67.8495 117.808 67.0514 118.075C65.8541 118.475 64.7898 119.407 63.5925 121.006C63.0604 121.673 63.1935 122.072 63.7256 122.206C64.1247 122.339 64.5238 122.206 64.7898 122.472C65.9871 123.538 69.1799 126.47 73.0378 122.206C73.4368 121.673 73.969 121.673 74.3681 121.939C78.7581 124.737 84.6114 123.272 87.2721 122.072C87.8042 121.806 87.9372 121.273 87.5381 120.74C87.2721 120.207 86.7399 120.207 86.2078 120.473C85.1436 120.873 83.5472 121.406 81.8178 121.539C81.1526 121.673 80.8866 121.14 80.8866 120.473C81.6848 115.01 76.8957 113.278 75.0332 111.946C74.6341 111.679 74.235 111.546 73.8359 111.679H73.7029C73.1708 111.812 72.9047 112.079 72.7717 112.612C72.2396 114.611 72.3726 116.076 72.7717 117.409C73.0378 118.208 72.9047 118.341 72.2396 117.808C70.5102 116.609 68.5147 115.277 66.1201 114.877C65.588 114.877 65.1889 114.611 65.0559 114.078C62.1292 107.815 57.3401 111.413 54.9455 109.947C54.2804 109.547 54.1473 109.547 54.2804 110.347C55.0786 113.545 56.4089 115.144 58.0052 116.076C58.6704 116.343 58.6704 116.743 58.1383 117.275C57.8722 117.409 57.6062 117.675 57.3401 117.942Z" fill="#F5B300"></path><path fill-rule="evenodd" clip-rule="evenodd" d="M104.699 114.611C105.364 114.211 105.896 114.477 105.896 115.277C105.896 117.942 104.3 119.274 102.304 120.34C101.639 120.74 101.107 120.207 101.107 119.274C100.974 116.609 102.837 115.543 104.699 114.611ZM112.947 120.074C113.612 120.34 113.612 121.006 113.08 121.539C112.016 122.472 110.951 123.272 109.355 121.673C108.823 121.14 108.956 120.607 109.621 120.34C110.685 119.674 111.75 119.407 112.947 120.074ZM118.135 114.877C117.47 114.744 117.071 114.211 117.47 113.545C118.534 111.812 119.731 112.212 121.727 112.345C122.525 112.345 122.924 113.012 122.126 113.678C121.062 114.877 119.731 115.01 118.135 114.877ZM127.048 125.004C127.048 125.803 126.383 126.07 125.585 125.537C123.855 124.338 122.791 124.204 123.19 121.539C123.323 120.873 123.855 120.607 124.521 121.006C125.851 122.206 126.915 123.272 127.048 125.004ZM122.126 117.275C121.461 116.876 121.594 116.476 122.259 116.076C123.855 115.277 125.186 113.545 125.984 110.347C126.117 109.547 125.984 109.547 125.319 109.947C122.924 111.413 118.135 107.682 115.208 114.078C114.942 114.611 114.676 114.877 114.144 114.877C111.75 115.277 109.621 116.476 108.025 117.808C107.36 118.341 107.227 118.208 107.493 117.409C107.892 116.076 108.025 114.611 107.493 112.612C107.36 112.079 107.094 111.812 106.561 111.679H106.428C106.029 111.546 105.63 111.679 105.231 111.946C103.236 113.278 98.5796 115.01 99.3777 120.473C99.5108 121.14 99.2447 121.673 98.4465 121.539C96.7171 121.273 95.1207 120.873 94.0565 120.473C93.5244 120.207 93.1253 120.34 92.7262 120.74C92.3271 121.273 92.4601 121.806 92.9923 122.072C95.6529 123.272 101.506 124.737 105.896 121.939C106.428 121.539 106.827 121.673 107.227 122.206C111.084 126.47 114.277 123.538 115.474 122.472C115.874 122.206 116.14 122.206 116.539 122.206C117.071 122.072 117.204 121.673 116.672 121.006C115.474 119.407 114.277 118.608 113.213 118.075C112.415 117.808 112.282 117.409 113.08 117.142C115.341 116.476 117.869 116.609 121.062 118.874C121.461 119.141 121.594 119.674 121.461 120.207C119.998 127.269 125.585 127.269 126.649 129.534C126.915 130.067 126.915 130.334 127.048 130.334C127.181 130.334 127.447 130.067 127.713 129.667C130.773 123.138 126.915 120.473 123.855 118.608C123.456 118.341 123.19 118.208 122.924 117.942C122.791 117.675 122.392 117.409 122.126 117.275Z" fill="#F5B300"></path><path fill-rule="evenodd" clip-rule="evenodd" d="M55.7452 49.1862C55.7452 49.3194 55.7452 49.3194 55.6122 49.4527C55.6122 49.5859 55.4792 49.5859 55.3461 49.5859C55.2131 49.5859 55.0801 49.7192 54.814 49.7192C54.548 49.7192 54.2819 49.7192 53.8828 49.7192C53.4837 49.7192 53.2176 49.7192 52.9516 49.7192C52.6855 49.7192 52.5525 49.7192 52.4195 49.5859C52.2864 49.5859 52.1534 49.4527 52.1534 49.4527C52.1534 49.3194 52.0204 49.3194 52.0204 49.1862V41.4579C52.0204 41.0581 52.0204 40.6584 51.8873 40.2586C51.7543 39.8589 51.6213 39.5924 51.4882 39.3259C51.3552 39.0594 51.0892 38.9262 50.8231 38.7929C50.557 38.6597 50.291 38.5264 49.8919 38.5264C49.4928 38.5264 48.9607 38.6597 48.5616 39.0594C48.1625 39.4592 47.7634 39.9921 47.2313 40.5251V49.1862C47.2313 49.3194 47.2313 49.3194 47.0982 49.4527C47.0982 49.5859 46.9652 49.5859 46.8322 49.5859C46.6991 49.5859 46.5661 49.7192 46.3 49.7192C46.034 49.7192 45.7679 49.7192 45.3688 49.7192C44.9697 49.7192 44.7037 49.7192 44.4376 49.7192C44.1715 49.7192 44.0385 49.7192 43.9055 49.5859C43.7725 49.5859 43.6394 49.4527 43.6394 49.4527C43.6394 49.3194 43.5064 49.3194 43.5064 49.1862V41.4579C43.5064 41.0581 43.5064 40.6584 43.3734 40.2586C43.2403 39.9921 43.1073 39.5924 42.9743 39.4592C42.8412 39.1927 42.5752 39.0594 42.3091 38.9262C42.043 38.7929 41.777 38.6597 41.3779 38.6597C40.9788 38.6597 40.4467 38.7929 40.0476 39.1927C39.6485 39.5924 39.1164 39.9921 38.5842 40.6584V49.3194C38.5842 49.4527 38.5842 49.4527 38.4512 49.5859C38.4512 49.7192 38.3182 49.7192 38.1851 49.7192C38.0521 49.7192 37.9191 49.8524 37.653 49.8524C37.387 49.8524 37.1209 49.8524 36.7218 49.8524C36.3227 49.8524 36.0567 49.8524 35.7906 49.8524C35.5245 49.8524 35.3915 49.8524 35.2585 49.7192C35.1254 49.7192 34.9924 49.5859 34.9924 49.5859C34.9924 49.4527 34.8594 49.4527 34.8594 49.3194V36.2612C34.8594 36.128 34.8594 36.128 34.9924 35.9947C34.9924 35.8615 35.1254 35.8615 35.2585 35.8615C35.3915 35.8615 35.5245 35.7282 35.7906 35.7282C36.0567 35.7282 36.1897 35.7282 36.5888 35.7282C36.8548 35.7282 37.1209 35.7282 37.387 35.7282C37.653 35.7282 37.7861 35.7282 37.9191 35.8615C37.9191 35.8615 37.9191 35.8615 38.0521 35.9947C38.0521 36.128 38.1851 36.128 38.1851 36.2612V37.7269C38.8503 36.9275 39.6485 36.3945 40.3136 35.9947C40.9788 35.595 41.777 35.4617 42.5752 35.4617C43.1073 35.4617 43.6394 35.4617 44.0385 35.595C44.4376 35.7282 44.8367 35.8615 45.2358 36.128C45.6349 36.3945 45.9009 36.5277 46.167 36.9275C46.4331 37.194 46.5661 37.5937 46.8322 37.8602C47.2313 37.4605 47.6303 37.0607 48.0294 36.7942C48.4285 36.5277 48.8276 36.2612 49.0937 35.9947C49.4928 35.8615 49.7588 35.7282 50.1579 35.595C50.557 35.4617 50.9561 35.4617 51.2222 35.4617C52.1534 35.4617 52.8186 35.595 53.4837 35.8615C54.0158 36.128 54.548 36.5277 54.9471 37.0607C55.3461 37.5937 55.6122 38.1267 55.7452 38.7929C55.8783 39.4592 56.0113 40.1254 56.0113 40.9249V49.1862H55.7452ZM63.0619 49.1862C63.0619 49.3194 63.0619 49.3194 62.9289 49.4527C62.9289 49.5859 62.7959 49.5859 62.6628 49.5859C62.5298 49.5859 62.3968 49.7192 62.1307 49.7192C61.8647 49.7192 61.5986 49.7192 61.1995 49.7192C60.8004 49.7192 60.5344 49.7192 60.2683 49.7192C60.0022 49.7192 59.8692 49.7192 59.7362 49.5859C59.6031 49.5859 59.4701 49.4527 59.4701 49.4527C59.4701 49.3194 59.3371 49.3194 59.3371 49.1862V36.2612C59.3371 36.128 59.3371 36.128 59.4701 35.9947C59.4701 35.8615 59.6031 35.8615 59.7362 35.8615C59.8692 35.8615 60.0022 35.7282 60.2683 35.7282C60.5344 35.7282 60.8004 35.7282 61.1995 35.7282C61.5986 35.7282 61.8647 35.7282 62.1307 35.7282C62.3968 35.7282 62.5298 35.8615 62.6628 35.8615C62.7959 35.8615 62.9289 35.9947 62.9289 35.9947C62.9289 36.128 63.0619 36.128 63.0619 36.2612V49.1862ZM63.328 31.8641C63.328 32.6636 63.195 33.0633 62.9289 33.3298C62.6628 33.5963 61.9977 33.7295 61.1995 33.7295C60.4013 33.7295 59.8692 33.5963 59.4701 33.3298C59.204 33.0633 59.071 32.5303 59.071 31.8641C59.071 31.0646 59.204 30.6649 59.4701 30.2651C59.7362 29.9986 60.2683 29.8654 61.1995 29.8654C61.9977 29.8654 62.5298 29.9986 62.9289 30.2651C63.195 30.6649 63.328 31.0646 63.328 31.8641ZM70.3786 49.1862C70.3786 49.3194 70.3786 49.3194 70.2456 49.4527C70.2456 49.5859 70.1126 49.5859 69.9796 49.5859C69.8465 49.5859 69.7135 49.7192 69.4474 49.7192C69.1814 49.7192 68.9153 49.7192 68.5162 49.7192C68.1171 49.7192 67.8511 49.7192 67.585 49.7192C67.3189 49.7192 67.1859 49.7192 67.0529 49.5859C66.9198 49.5859 66.7868 49.4527 66.7868 49.4527C66.7868 49.3194 66.6538 49.3194 66.6538 49.1862V30.1319C66.6538 29.9986 66.6538 29.9986 66.7868 29.8654C66.7868 29.7321 66.9198 29.7321 67.0529 29.7321C67.1859 29.7321 67.3189 29.5989 67.585 29.5989C67.8511 29.5989 68.1171 29.5989 68.5162 29.5989C68.9153 29.5989 69.1814 29.5989 69.4474 29.5989C69.7135 29.5989 69.8465 29.7321 69.9796 29.7321C70.1126 29.7321 70.2456 29.8654 70.2456 29.8654C70.2456 29.9986 70.3786 29.9986 70.3786 30.1319V49.1862ZM86.2093 49.1862C86.2093 49.3194 86.2093 49.3194 86.0763 49.4527C86.0763 49.5859 85.9433 49.5859 85.8102 49.5859C85.6772 49.5859 85.4111 49.7192 85.2781 49.7192C85.0121 49.7192 84.746 49.7192 84.3469 49.7192C83.9478 49.7192 83.6817 49.7192 83.4157 49.7192C83.1496 49.7192 83.0166 49.7192 82.7505 49.5859C82.6175 49.5859 82.4845 49.4527 82.3514 49.4527C82.2184 49.3194 82.2184 49.3194 82.0854 49.1862L77.8284 42.3906V49.3194C77.8284 49.4527 77.8284 49.4527 77.6954 49.5859C77.6954 49.7192 77.5623 49.7192 77.4293 49.7192C77.2963 49.7192 77.1632 49.8524 76.8972 49.8524C76.6311 49.8524 76.365 49.8524 75.9659 49.8524C75.5669 49.8524 75.3008 49.8524 75.0347 49.8524C74.7687 49.8524 74.6356 49.8524 74.5026 49.7192C74.3696 49.7192 74.2365 49.5859 74.2365 49.5859C74.2365 49.4527 74.1035 49.4527 74.1035 49.3194V30.1319C74.1035 29.9986 74.1035 29.9986 74.2365 29.8654C74.2365 29.7321 74.3696 29.7321 74.5026 29.7321C74.6356 29.7321 74.7687 29.5989 75.0347 29.5989C75.3008 29.5989 75.5669 29.5989 75.9659 29.5989C76.365 29.5989 76.6311 29.5989 76.8972 29.5989C77.1632 29.5989 77.2963 29.7321 77.4293 29.7321C77.5623 29.7321 77.6954 29.8654 77.6954 29.8654C77.8284 29.8654 77.8284 29.9986 77.8284 30.1319V41.5911L81.6863 36.3945C81.6863 36.128 81.8193 36.128 81.9523 35.9947C82.0854 35.8615 82.2184 35.8615 82.3514 35.7282C82.4845 35.7282 82.7505 35.595 83.0166 35.595C83.2827 35.595 83.5487 35.595 83.9478 35.595C84.3469 35.595 84.613 35.595 84.879 35.595C85.1451 35.595 85.2781 35.595 85.5442 35.7282C85.6772 35.7282 85.8102 35.8615 85.8102 35.8615C85.6772 35.9947 85.8102 36.128 85.8102 36.2612C85.8102 36.3945 85.8102 36.5277 85.6772 36.7942C85.5442 36.9275 85.5442 37.194 85.4111 37.3272L81.5532 41.5911L85.9433 48.3867C86.0763 48.52 86.2093 48.7865 86.2093 48.9197C86.2093 48.9197 86.2093 49.053 86.2093 49.1862ZM99.2464 49.3194C99.2464 49.4527 99.2464 49.5859 99.1133 49.5859C98.9803 49.7192 98.8473 49.7192 98.7142 49.7192C98.4482 49.7192 98.1821 49.7192 97.783 49.7192C97.3839 49.7192 96.9848 49.7192 96.8518 49.7192C96.5858 49.7192 96.4527 49.5859 96.4527 49.5859C96.3197 49.4527 96.3197 49.4527 96.3197 49.3194V48.2535C95.7876 48.7865 95.1224 49.3194 94.4573 49.5859C93.7921 49.8524 92.9939 50.1189 92.1957 50.1189C91.5306 50.1189 90.8654 49.9857 90.3333 49.8524C89.8012 49.7192 89.2691 49.4527 88.87 49.053C88.4709 48.6532 88.0718 48.2535 87.9387 47.7205C87.6727 47.1875 87.5396 46.5213 87.5396 45.855C87.5396 45.0555 87.6727 44.3893 87.9387 43.8563C88.2048 43.3233 88.7369 42.7903 89.269 42.5238C89.8012 42.1241 90.5994 41.8576 91.5306 41.7244C92.4618 41.5911 93.393 41.4579 94.5903 41.4579H95.9206V40.6584C95.9206 40.2586 95.9206 39.8589 95.7876 39.5924C95.6545 39.3259 95.5215 39.0594 95.3885 38.7929C95.2554 38.5264 94.9894 38.3932 94.5903 38.3932C94.3242 38.2599 93.9251 38.2599 93.393 38.2599C92.7278 38.2599 92.1957 38.2599 91.7966 38.5264C91.2645 38.6597 90.8654 38.7929 90.4663 38.9262C90.0672 39.0594 89.8012 39.1927 89.5351 39.3259C89.2691 39.4592 89.136 39.5924 88.87 39.5924C88.7369 39.5924 88.6039 39.5924 88.6039 39.4592C88.4709 39.3259 88.4709 39.3259 88.3378 39.1927C88.3378 39.0594 88.2048 38.9262 88.2048 38.7929C88.2048 38.6597 88.2048 38.3932 88.2048 38.1267C88.2048 37.8602 88.2048 37.5937 88.3378 37.4605C88.3378 37.3272 88.4709 37.0607 88.6039 36.9275C88.7369 36.7942 89.003 36.661 89.269 36.3945C89.6681 36.2612 90.0672 36.128 90.4663 35.8615C90.8654 35.7282 91.3975 35.595 91.9297 35.4617C92.4618 35.3285 92.9939 35.3285 93.6591 35.3285C94.7233 35.3285 95.5215 35.4617 96.3197 35.595C96.9848 35.7282 97.65 36.128 98.1821 36.5277C98.7143 36.9275 98.9803 37.4605 99.2464 38.1267C99.5124 38.7929 99.5124 39.5924 99.5124 40.3919L99.2464 49.3194ZM95.6545 43.7231H94.1912C93.6591 43.7231 93.1269 43.7231 92.7278 43.8563C92.3288 43.9896 91.9297 44.1228 91.6636 44.2561C91.3975 44.3893 91.2645 44.6558 91.1315 44.9223C90.9985 45.1888 90.9985 45.4553 90.9985 45.7218C90.9985 46.2548 91.1315 46.6545 91.5306 47.0542C91.9297 47.3207 92.3288 47.5872 92.9939 47.5872C93.526 47.5872 93.9251 47.454 94.4573 47.1875C94.8563 46.921 95.3885 46.5213 95.7876 45.9883V43.7231H95.6545ZM114.545 36.2612V36.3945C114.545 36.5277 114.545 36.5277 114.545 36.661C114.545 36.7942 114.545 36.7942 114.545 36.9275C114.545 37.0607 114.545 37.194 114.412 37.3272L110.421 49.053C110.421 49.1862 110.288 49.3194 110.288 49.4527C110.155 49.5859 110.022 49.5859 109.889 49.7192C109.756 49.7192 109.49 49.8524 109.091 49.8524C108.825 49.8524 108.292 49.8524 107.76 49.8524C107.228 49.8524 106.829 49.8524 106.43 49.8524C106.164 49.8524 105.898 49.8524 105.632 49.7192C105.499 49.7192 105.366 49.5859 105.233 49.4527C105.1 49.3194 105.1 49.1862 105.1 49.053L101.109 37.3272C101.109 37.194 100.976 36.9275 100.976 36.7942C100.976 36.661 100.976 36.5277 100.976 36.3945V36.2612C100.976 36.128 100.976 36.128 101.109 35.9947C101.109 35.8615 101.242 35.8615 101.375 35.8615C101.508 35.8615 101.641 35.7282 101.907 35.7282C102.173 35.7282 102.439 35.7282 102.838 35.7282C103.237 35.7282 103.503 35.7282 103.769 35.7282C104.035 35.7282 104.169 35.7282 104.302 35.8615C104.435 35.8615 104.568 35.9947 104.568 35.9947C104.568 36.128 104.701 36.128 104.701 36.2612L107.627 45.855L107.76 46.2548L107.893 45.855L110.82 36.2612C110.953 36.128 110.953 35.9947 111.086 35.9947C111.086 35.8615 111.219 35.8615 111.352 35.8615C111.485 35.8615 111.618 35.7282 111.884 35.7282C112.15 35.7282 112.416 35.7282 112.816 35.7282C113.215 35.7282 113.481 35.7282 113.747 35.7282C114.013 35.7282 114.146 35.7282 114.279 35.8615C114.412 35.8615 114.545 35.9947 114.545 35.9947C114.545 35.9947 114.545 36.128 114.545 36.2612ZM120.398 49.1862C120.398 49.3194 120.398 49.3194 120.265 49.4527C120.265 49.5859 120.132 49.5859 119.999 49.5859C119.866 49.5859 119.733 49.7192 119.467 49.7192C119.201 49.7192 118.935 49.7192 118.536 49.7192C118.137 49.7192 117.871 49.7192 117.605 49.7192C117.339 49.7192 117.206 49.7192 117.073 49.5859C116.939 49.5859 116.806 49.4527 116.806 49.4527C116.806 49.3194 116.673 49.3194 116.673 49.1862V36.2612C116.673 36.128 116.673 36.128 116.806 35.9947C116.806 35.8615 116.939 35.8615 117.073 35.8615C117.206 35.8615 117.339 35.7282 117.605 35.7282C117.871 35.7282 118.137 35.7282 118.536 35.7282C118.935 35.7282 119.201 35.7282 119.467 35.7282C119.733 35.7282 119.866 35.8615 119.999 35.8615C120.132 35.8615 120.265 35.9947 120.398 35.9947C120.398 36.128 120.398 36.128 120.398 36.2612V49.1862ZM120.664 31.8641C120.664 32.6636 120.531 33.0633 120.265 33.3298C119.999 33.5963 119.334 33.7295 118.536 33.7295C117.738 33.7295 117.206 33.5963 116.806 33.3298C116.54 33.0633 116.407 32.6636 116.407 31.8641C116.407 31.0646 116.54 30.6649 116.806 30.2651C117.073 29.9986 117.605 29.8654 118.536 29.8654C119.334 29.8654 119.866 29.9986 120.265 30.2651C120.531 30.6649 120.664 31.0646 120.664 31.8641ZM131.839 47.987C131.839 48.3867 131.839 48.7865 131.706 48.9197C131.706 49.1862 131.573 49.3194 131.44 49.4527C131.307 49.5859 131.174 49.5859 131.041 49.7192C130.908 49.8524 130.642 49.8524 130.376 49.8524C130.11 49.8524 129.843 49.9857 129.577 49.9857C129.311 49.9857 129.045 49.9857 128.779 49.9857C127.981 49.9857 127.449 49.8524 126.917 49.7192C126.385 49.5859 125.986 49.1862 125.587 48.9197C125.187 48.52 124.921 47.987 124.788 47.454C124.655 46.921 124.522 46.1215 124.522 45.322V38.6597H122.926C122.793 38.6597 122.66 38.5264 122.527 38.2599C122.394 37.9934 122.394 37.5937 122.394 37.0607C122.394 36.7942 122.394 36.5277 122.394 36.3945C122.394 36.2612 122.394 35.9947 122.527 35.9947C122.527 35.8615 122.66 35.8615 122.66 35.7282C122.793 35.7282 122.793 35.595 122.926 35.595H124.522V32.7968C124.522 32.6636 124.522 32.6636 124.655 32.5303C124.655 32.3971 124.788 32.3971 124.921 32.3971C125.054 32.3971 125.187 32.2638 125.453 32.2638C125.72 32.2638 125.986 32.2638 126.385 32.2638C126.784 32.2638 127.05 32.2638 127.316 32.2638C127.582 32.2638 127.715 32.2638 127.848 32.3971C127.981 32.3971 128.114 32.5303 128.114 32.5303C128.38 32.6636 128.38 32.7968 128.38 32.7968V35.7282H131.174C131.307 35.7282 131.307 35.7282 131.44 35.8615C131.573 35.8615 131.573 35.9947 131.573 36.128C131.573 36.2612 131.706 36.3945 131.706 36.5277C131.706 36.661 131.706 36.9275 131.706 37.194C131.706 37.7269 131.706 38.1267 131.573 38.3932C131.573 38.5264 131.44 38.6597 131.307 38.6597H128.38V44.789C128.38 45.4553 128.513 45.9883 128.779 46.388C129.045 46.7878 129.444 46.921 129.977 46.921C130.11 46.921 130.376 46.921 130.509 46.921C130.642 46.921 130.775 46.7878 130.908 46.7878C131.041 46.7878 131.174 46.6545 131.174 46.6545C131.307 46.6545 131.307 46.6545 131.44 46.6545H131.573C131.573 46.6545 131.706 46.7877 131.706 46.921C131.706 47.0542 131.706 47.1875 131.839 47.3207C131.839 47.454 131.839 47.7205 131.839 47.987ZM145.408 49.3194C145.408 49.4527 145.408 49.5859 145.275 49.5859C145.142 49.7192 145.009 49.7192 144.876 49.7192C144.61 49.7192 144.344 49.7192 143.945 49.7192C143.546 49.7192 143.147 49.7192 143.014 49.7192C142.748 49.7192 142.614 49.5859 142.614 49.5859C142.481 49.4527 142.481 49.4527 142.481 49.3194V48.2535C141.949 48.7865 141.284 49.3194 140.619 49.5859C139.954 49.8524 139.156 50.1189 138.357 50.1189C137.692 50.1189 137.027 49.9857 136.495 49.8524C135.963 49.7192 135.431 49.4527 135.032 49.053C134.633 48.6532 134.234 48.2535 134.1 47.7205C133.834 47.1875 133.701 46.5213 133.701 45.855C133.701 45.0555 133.834 44.3893 134.1 43.8563C134.367 43.3233 134.899 42.7903 135.431 42.5238C135.963 42.1241 136.761 41.8576 137.692 41.7244C138.624 41.5911 139.555 41.4579 140.752 41.4579H142.082V40.6584C142.082 40.2586 142.082 39.8589 141.949 39.5924C141.816 39.3259 141.683 39.0594 141.55 38.7929C141.417 38.5264 141.151 38.3932 140.752 38.3932C140.486 38.2599 140.087 38.2599 139.555 38.2599C138.89 38.2599 138.357 38.2599 137.958 38.5264C137.426 38.6597 137.027 38.7929 136.628 38.9262C136.229 39.0594 135.963 39.1927 135.697 39.3259C135.431 39.4592 135.298 39.5924 135.032 39.5924C134.899 39.5924 134.766 39.5924 134.766 39.4592C134.633 39.3259 134.633 39.3259 134.5 39.1927C134.5 39.0594 134.367 38.9262 134.367 38.7929C134.367 38.6597 134.367 38.3932 134.367 38.1267C134.367 37.8602 134.367 37.5937 134.5 37.4605C134.5 37.3272 134.633 37.0607 134.766 36.9275C134.899 36.7942 135.165 36.661 135.431 36.3945C135.83 36.2612 136.229 36.128 136.628 35.8615C137.027 35.7282 137.559 35.595 138.091 35.4617C138.624 35.3285 139.156 35.3285 139.821 35.3285C140.885 35.3285 141.683 35.4617 142.481 35.595C143.147 35.7282 143.812 36.128 144.344 36.5277C144.876 36.9275 145.142 37.4605 145.408 38.1267C145.674 38.7929 145.674 39.5924 145.674 40.3919V49.3194H145.408ZM141.683 43.7231H140.353C139.821 43.7231 139.289 43.7231 138.89 43.8563C138.491 43.9896 138.091 44.1228 137.825 44.2561C137.559 44.3893 137.426 44.6558 137.293 44.9223C137.16 45.1888 137.16 45.4553 137.16 45.7218C137.16 46.2548 137.293 46.6545 137.692 47.0542C138.091 47.3207 138.491 47.5872 139.156 47.5872C139.688 47.5872 140.087 47.454 140.619 47.1875C141.018 46.921 141.55 46.5213 141.949 45.9883V43.7231H141.683Z" fill="#F5B300"></path></svg> 